<svg xmlns="http://www.w3.org/2000/svg" viewBox="0 0 2000 2520"><linearGradient id="yellow-gradient" gradientUnits="userSpaceOnUse" x1="339.127" y1="227.319" x2="841.603" y2="92.681"><stop offset="0" stop-color="#e8621a"/><stop offset=".507" stop-color="#f29230"/><stop offset="1" stop-color="#fcee21"/></linearGradient><linearGradient id="purple-gradient" gradientUnits="userSpaceOnUse" x1="297.333" y1="168.15" x2="822.667" y2="168.15"><stop offset="0" stop-color="#5a1e70"/><stop offset=".5" stop-color="#a83d5a"/><stop offset="1" stop-color="#e75816"/></linearGradient><view id="vinci" viewBox="0 1920 1000 320"/><view id="koopgarantfonds" viewBox="0 1280 2000 640"/><view id="woningfonds" viewBox="0 640 2000 640"/><view id="stichting" viewBox="0 0 2000 640"/><g transform="translate(0 1920)" fill="#FFF"><path d="M272 105.008h45v211h-45zM769 105.008h45v211h-45zM294 13.008c-18.5 0-28 10.5-28 28s10 28 28 28 28-10.5 28-28-9.5-28-28-28zM790 13.008c-18.5 0-28 10.5-28 28s10 28 28 28 28-10.5 28-28-9.5-28-28-28zM140.619 260.225L82 105.008H32l81 211h50l77-211h-45zM451.5 97.008c-52.833 0-95.5 19-95.5 49v170h44v-159c0-7.667 16-19 51.5-19s47.5 10.667 47.5 18v160h44v-171c0-29-38.667-48-91.5-48zM640 145.008c22.333-14 84-1 84-1s6.886-27.774 9-36c-37.5-7.333-95.333-8.333-119 7s-38 39.667-38 95.5 21.333 84.5 42 98.5 60 17 103 10c.667-4 6-39 6-39s-66 11.333-86-1-24.124-39.333-24.124-68.5c0-29.166.791-51.5 23.124-65.5z"/></g><g transform="translate(0 1280)"><path fill="url(#yellow-gradient)" d="M622.667 266.008l-32-41.333L568 247.342l55.333 71S812.666 36.009 822.666 22.009c-41.301-3.902-84.667-8-129.333 3.333-44.667 11.333-73.74 31.252-84.667 48.667-21.333 34-80.044 126.215-95.217 150.061-15.173 23.846-45.45 19.939-55.098 8.808-9.648-11.131-98.229-131.237-98.229-131.237s42.544 1.685 63.997 2.5c21.451.814 48.711 27.038 41.881 19.869l40.332 42.332 22.333-21-40.55-42.201C475.047 89.542 446 75.342 409.333 74.008c-36.667-1.333-112-2.667-112-2.667L434.12 253.133c6.818 9.061 29.214 20.209 57.88 16.876 28.667-3.333 42.836-23.002 47.114-30.375 9.114-15.708 81.367-129.248 93.489-148.504s66.73-47.788 136.815-43.422c-4.581 3.031-146.751 218.3-146.751 218.3z"/><path fill="#F18D2B" d="M272 375.008h45v211h-45zM769 375.008h45v211h-45zM294 283.008c-18.5 0-28 10.5-28 28s10 28 28 28 28-10.5 28-28-9.5-28-28-28zM790 283.008c-18.5 0-28 10.5-28 28s10 28 28 28 28-10.5 28-28-9.5-28-28-28zM140.619 530.225L82 375.008H32l81 211h50l77-211h-45zM451.5 367.008c-52.833 0-95.5 19-95.5 49v170h44v-159c0-7.667 16-19 51.5-19s47.5 10.667 47.5 18v160h44v-171c0-29-38.667-48-91.5-48zM640 415.008c22.333-14 84-1 84-1s6.886-27.774 9-36c-37.5-7.333-95.333-8.333-119 7s-38 39.667-38 95.5 21.333 84.5 42 98.5 60 17 103 10c.667-4 6-39 6-39s-66 11.333-86-1-24.124-39.333-24.124-68.5c0-29.166.791-51.5 23.124-65.5zM953.658 550.282l-7.183 7.382v23.478h-16.162V478.985h16.162v58.926l24.94-28.731h19.42L964.1 539.175l29.596 41.967h-18.689l-21.349-30.86zM998.351 544.496c0-24.654 16.292-36.646 33.387-36.646s33.52 11.467 33.52 36.646c0 25.179-14.599 37.976-33.387 37.976s-33.52-13.322-33.52-37.976zm33.52 25.073c12.629 0 17.293-11.215 17.293-24.409 0-13.194-5.688-24.342-17.426-24.342s-17.225 11.164-17.225 24.677 4.729 24.074 17.358 24.074zM1075.9 544.496c0-24.654 16.292-36.646 33.387-36.646s33.52 11.467 33.52 36.646c0 25.179-14.599 37.976-33.387 37.976s-33.52-13.322-33.52-37.976zm33.52 25.073c12.629 0 17.293-11.215 17.293-24.409 0-13.194-5.688-24.342-17.426-24.342s-17.225 11.164-17.225 24.677 4.729 24.074 17.358 24.074zM1669.949 543.831c0-24.654 16.292-36.646 33.387-36.646s33.52 11.467 33.52 36.646c0 25.179-14.599 37.976-33.387 37.976s-33.52-13.322-33.52-37.976zm33.52 25.073c12.629 0 17.293-11.215 17.293-24.409 0-13.194-5.688-24.342-17.426-24.342s-17.225 11.164-17.225 24.677 4.73 24.074 17.358 24.074zM1219.491 545.892c0 25.616-12.991 36.58-27.934 36.58-9.558 0-16.65-5.254-18.955-7.781v34.119h-16.161v-99.63h14.897l.665 7.316c2.306-2.793 7.463-8.646 19.354-8.646 16.643 0 28.134 12.426 28.134 38.042zm-32.655-24.807c-7.836 0-12.903 5.653-14.233 8.18v31.924c1.33 2.527 6.147 8.38 14.366 8.38 6.281 0 16.428-4.543 16.428-23.677s-8.725-24.807-16.561-24.807zM1230.332 544.629c0-26.621 14.928-36.779 28.798-36.779 12.037 0 16.687 5.658 19.354 8.58l.731-7.25h14.565v69.967c0 21.945-16.314 30.328-32.589 30.328s-25.34-9.733-26.936-11.905l7.648-9.71c2.66 3.148 8.615 8.846 18.355 8.846s17.359-5.196 17.359-17.159v-4.855c-2.262 2.527-7.453 7.781-18.623 7.781-14.077-.001-28.662-11.223-28.662-37.844zm32.788 24.674c9.13 0 13.079-5.853 14.499-8.38v-31.658c-1.42-2.527-5.203-8.18-14.366-8.18-6.67 0-16.826 4.498-16.826 23.544s8.647 24.674 16.693 24.674zM1421.741 523.945c-15.991-2.937-20.352 5.32-21.549 7.981v49.216h-16.161V509.18h15.43l.399 8.048c1.817-2.927 8.14-11.969 21.947-8.447.001 1.479-.066 13.225-.066 15.164zM1472.952 581.142c-.443-.842-1.641-5.387-1.862-6.717-1.063 1.109-7.123 8.047-18.888 8.047s-19.849-5.974-22.713-12.969-3.009-19.602 6.751-26.205 19.885-6.353 34.318-6.119v-4.722c0-6.074-3.34-12.304-12.637-12.304s-12.797 6.229-12.57 9.776h-16.161c0-9.797 9.765-22.081 29.662-22.081s27.867 11.409 27.867 24.741v31.924c0 12.806 3.468 15.119 2.727 16.627-1.946.002-16.494.002-16.494.002zm-17.757-11.639c7.93 0 12.242-3.932 15.363-8.58v-13.568c-17.121-1.097-26.736 2.228-26.736 11.972 0 5.494 3.444 10.176 11.373 10.176zM1353.255 581.142c-.443-.842-1.641-5.387-1.862-6.717-1.063 1.109-7.123 8.047-18.888 8.047s-19.849-5.974-22.713-12.969-3.009-19.602 6.751-26.205 19.885-6.353 34.318-6.119v-4.722c0-6.074-3.34-12.304-12.637-12.304s-12.797 6.229-12.57 9.776h-16.161c0-9.797 9.765-22.081 29.662-22.081s27.867 11.409 27.867 24.741v31.924c0 12.806 3.468 15.119 2.727 16.627-1.946.002-16.494.002-16.494.002zm-17.757-11.639c7.93 0 12.242-3.932 15.363-8.58v-13.568c-17.121-1.097-26.736 2.228-26.736 11.972 0 5.494 3.443 10.176 11.373 10.176zM1518.644 509.18l.466 8.314c2.527-3.059 9.635-9.644 20.95-9.644s22.879 5.072 22.879 26.803v46.489h-16.161V534.52c0-8.761-3.871-13.435-12.637-13.435s-13.103 6.142-14.565 8.845v51.211h-16.161V509.18h15.229zM1765.521 509.18l.466 8.314c2.527-3.059 9.635-9.644 20.95-9.644s22.879 5.072 22.879 26.803v46.489h-16.161V534.52c0-8.761-3.871-13.435-12.637-13.435s-13.103 6.142-14.565 8.845v51.211h-16.161V509.18h15.229zM1599.651 491.689v17.491h12.703v11.972h-12.703v40.171c0 8.686 5.599 8.186 13.102 7.116v12.503c-1.286.354-9.86 2.99-18.057.466s-11.207-10.784-11.207-19.154v-41.102h-11.838V509.18h11.838v-17.491h16.162zM1630.377 581.142v-59.99h-10.974V509.18h10.974v-6.784c0-24.054 20.623-27.221 34.318-23.61l-.399 12.637c-9.463-1.914-17.758.266-17.758 10.974v6.784h14.632v11.972h-14.632v59.99h-16.161zM1823.25 544.629c0-26.287 15.215-36.779 28.399-36.779 11.684 0 16.228 5.41 18.489 7.981v-36.845h16.161v102.156h-14.632l-.798-7.449c-2.306 2.793-7.537 8.779-19.354 8.779-13.848 0-28.265-11.556-28.265-37.843zm32.39 24.674c9.027 0 13.124-6.186 14.499-8.846V529.73c-1.375-2.661-5.594-8.646-14.366-8.646s-16.36 5.831-16.36 23.544c-.001 17.714 7.2 24.675 16.227 24.675zM1943.497 561.589c0-6.08-5.664-7.913-15.363-10.575-3.799-1.042-7.372-1.796-10.541-2.993-3.171-1.197-15.33-6.033-15.33-18.356s12.196-21.815 27.8-21.815 28.798 8.659 28.798 22.945H1942.7c0-6.62-5.574-10.841-12.637-10.841s-12.038 3.662-12.038 9.045 5.675 7.172 7.582 7.814c1.906.643 4.807 1.33 7.183 1.896 14.544 3.465 26.604 7.396 26.604 22.014 0 14.618-14.203 21.748-29.131 21.748s-30.394-8.963-30.394-24.009h15.695c.103 3.046 2.194 11.905 14.898 11.905 8.371 0 13.035-2.698 13.035-8.778z"/></g><g transform="translate(0 640)"><path fill="url(#yellow-gradient)" d="M622.667 266.008l-32-41.333L568 247.342l55.333 71S812.666 36.009 822.666 22.009c-41.301-3.902-84.667-8-129.333 3.333-44.667 11.333-73.74 31.252-84.667 48.667-21.333 34-80.044 126.215-95.217 150.061-15.173 23.846-45.45 19.939-55.098 8.808-9.648-11.131-98.229-131.237-98.229-131.237s42.544 1.685 63.997 2.5c21.451.814 48.711 27.038 41.881 19.869l40.332 42.332 22.333-21-40.55-42.201C475.047 89.542 446 75.342 409.333 74.008c-36.667-1.333-112-2.667-112-2.667L434.12 253.133c6.818 9.061 29.214 20.209 57.88 16.876 28.667-3.333 42.836-23.002 47.114-30.375 9.114-15.708 81.367-129.248 93.489-148.504s66.73-47.788 136.815-43.422c-4.581 3.031-146.751 218.3-146.751 218.3z"/><path fill="#F18D2B" d="M272 375.008h45v211h-45zM769 375.008h45v211h-45zM294 283.008c-18.5 0-28 10.5-28 28s10 28 28 28 28-10.5 28-28-9.5-28-28-28zM790 283.008c-18.5 0-28 10.5-28 28s10 28 28 28 28-10.5 28-28-9.5-28-28-28zM140.619 530.225L82 375.008H32l81 211h50l77-211h-45zM451.5 367.008c-52.833 0-95.5 19-95.5 49v170h44v-159c0-7.667 16-19 51.5-19s47.5 10.667 47.5 18v160h44v-171c0-29-38.667-48-91.5-48zM640 415.008c22.333-14 84-1 84-1s6.886-27.774 9-36c-37.5-7.333-95.333-8.333-119 7s-38 39.667-38 95.5 21.333 84.5 42 98.5 60 17 103 10c.667-4 6-39 6-39s-66 11.333-86-1-24.124-39.333-24.124-68.5c0-29.166.791-51.5 23.124-65.5zM1037.926 544.496c0-24.654 16.292-36.646 33.387-36.646s33.52 11.467 33.52 36.646c0 25.179-14.599 37.976-33.387 37.976s-33.52-13.322-33.52-37.976zm33.52 25.073c12.629 0 17.293-11.215 17.293-24.409 0-13.194-5.688-24.342-17.426-24.342s-17.225 11.164-17.225 24.677 4.729 24.074 17.358 24.074zM1579.784 543.831c0-24.654 16.292-36.646 33.387-36.646s33.52 11.467 33.52 36.646c0 25.179-14.599 37.976-33.387 37.976s-33.52-13.322-33.52-37.976zm33.52 25.073c12.629 0 17.293-11.215 17.293-24.409 0-13.194-5.688-24.342-17.426-24.342s-17.225 11.164-17.225 24.677 4.73 24.074 17.358 24.074zM1304.086 544.629c0-26.621 14.928-36.779 28.798-36.779 12.037 0 16.687 5.658 19.354 8.58l.731-7.25h14.565v69.967c0 21.945-16.314 30.328-32.589 30.328s-25.34-9.733-26.936-11.905l7.648-9.71c2.66 3.148 8.615 8.846 18.355 8.846s17.359-5.196 17.359-17.159v-4.855c-2.262 2.527-7.453 7.781-18.623 7.781-14.077-.001-28.662-11.223-28.662-37.844zm32.789 24.674c9.13 0 13.079-5.853 14.499-8.38v-31.658c-1.42-2.527-5.203-8.18-14.366-8.18-6.67 0-16.826 4.498-16.826 23.544-.001 19.046 8.646 24.674 16.693 24.674zM1473.439 509.18l.466 8.314c2.527-3.059 9.635-9.644 20.95-9.644s22.879 5.072 22.879 26.803v46.489h-16.161V534.52c0-8.761-3.871-13.435-12.637-13.435s-13.103 6.142-14.565 8.845v51.211h-16.161V509.18h15.229zM1245.548 509.18l.466 8.314c2.527-3.059 9.635-9.644 20.95-9.644s22.879 5.072 22.879 26.803v46.489h-16.161V534.52c0-8.761-3.871-13.435-12.637-13.435s-13.103 6.142-14.565 8.845v51.211h-16.161V509.18h15.229zM1134.118 509.18l.466 8.314c2.527-3.059 9.635-9.644 20.95-9.644s22.879 5.072 22.879 26.803v46.489h-16.161V534.52c0-8.761-3.871-13.435-12.637-13.435s-13.103 6.142-14.565 8.845v51.211h-16.161V509.18h15.229zM1675.356 509.18l.466 8.314c2.527-3.059 9.635-9.644 20.95-9.644s22.879 5.072 22.879 26.803v46.489h-16.161V534.52c0-8.761-3.871-13.435-12.637-13.435s-13.103 6.142-14.565 8.845v51.211h-16.161V509.18h15.229zM1540.212 581.142v-59.99h-10.974V509.18h10.974v-6.784c0-24.054 20.623-27.221 34.318-23.61l-.399 12.637c-9.463-1.914-17.758.266-17.758 10.974v6.784h14.632v11.972h-14.632v59.99h-16.161zM1733.085 544.629c0-26.287 15.215-36.779 28.399-36.779 11.684 0 16.228 5.41 18.489 7.981v-36.845h16.161v102.156h-14.632l-.798-7.449c-2.306 2.793-7.537 8.779-19.354 8.779-13.848 0-28.265-11.556-28.265-37.843zm32.39 24.674c9.027 0 13.124-6.186 14.499-8.846V529.73c-1.375-2.661-5.594-8.646-14.366-8.646s-16.36 5.831-16.36 23.544c-.001 17.714 7.2 24.675 16.227 24.675zM1853.332 561.589c0-6.08-5.664-7.913-15.363-10.575-3.799-1.042-7.372-1.796-10.541-2.993-3.171-1.197-15.33-6.033-15.33-18.356s12.196-21.815 27.8-21.815 28.798 8.659 28.798 22.945h-16.161c0-6.62-5.574-10.841-12.637-10.841s-12.038 3.662-12.038 9.045 5.675 7.172 7.582 7.814c1.906.643 4.807 1.33 7.183 1.896 14.544 3.465 26.604 7.396 26.604 22.014 0 14.618-14.203 21.748-29.131 21.748s-30.394-8.963-30.394-24.009h15.695c.103 3.046 2.194 11.905 14.898 11.905 8.371 0 13.035-2.698 13.035-8.778zM1002.388 559.284l11.532-50.084h15.89l-19.779 72.544h-13.409l-15.555-49.815-15.286 49.815h-13.41L932.526 509.2h15.89l11.733 49.547 14.884-49.547h12.27l15.085 50.084zM1195.281 490.36c0-4.352 1.652-8.716 9.186-8.716s9.252 3.567 9.252 8.716-3.119 8.582-9.252 8.582-9.186-4.23-9.186-8.582zm17.297 91.384h-16.291V509.2h16.291v72.544zM1416.467 583.085c-18.467 0-34.73-11.292-34.73-37.747s17.818-37.479 32.854-37.479 30.975 8.149 30.975 35.803v6.973h-47.4c0 10.874 8.523 19.443 19.242 19.443s16.045-6.235 18.236-9.051l8.783 8.381c-1.163 1.743-9.493 13.677-27.96 13.677zm-1.944-62.152c-12.148 0-15.332 12.18-16.092 17.767h31.043c.001 0 .651-17.767-14.951-17.767z"/></g><path fill="url(#purple-gradient)" d="M622.667 266.008l-32-41.333L568 247.342l55.333 71S812.666 36.009 822.666 22.009c-41.301-3.902-84.667-8-129.333 3.333-44.667 11.333-73.74 31.252-84.667 48.667-21.333 34-80.044 126.215-95.217 150.061-15.173 23.846-45.45 19.939-55.098 8.808-9.648-11.131-98.229-131.237-98.229-131.237s42.544 1.685 63.997 2.5c21.451.814 48.711 27.038 41.881 19.869l40.332 42.332 22.333-21-40.55-42.201C475.047 89.542 446 75.342 409.333 74.008c-36.667-1.333-112-2.667-112-2.667L434.12 253.133c6.818 9.061 29.214 20.209 57.88 16.876 28.667-3.333 42.836-23.002 47.114-30.375 9.114-15.708 81.367-129.248 93.489-148.504s66.73-47.788 136.815-43.422c-4.581 3.031-146.751 218.3-146.751 218.3z"/><path fill="#581D70" d="M272 375.008h45v211h-45zM769 375.008h45v211h-45zM294 283.008c-18.5 0-28 10.5-28 28s10 28 28 28 28-10.5 28-28-9.5-28-28-28zM790 283.008c-18.5 0-28 10.5-28 28s10 28 28 28 28-10.5 28-28-9.5-28-28-28zM140.619 530.225L82 375.008H32l81 211h50l77-211h-45zM451.5 367.008c-52.833 0-95.5 19-95.5 49v170h44v-159c0-7.667 16-19 51.5-19s47.5 10.667 47.5 18v160h44v-171c0-29-38.667-48-91.5-48zM640 415.008c22.333-14 84-1 84-1s6.886-27.774 9-36c-37.5-7.333-95.333-8.333-119 7s-38 39.667-38 95.5 21.333 84.5 42 98.5 60 17 103 10c.667-4 6-39 6-39s-66 11.333-86-1-24.124-39.333-24.124-68.5c0-29.166.791-51.5 23.124-65.5zM1033.613 407.037c5.262 0 7.718-4.279 7.718-6.605h8.221c0 4.326-4.11 13.569-15.831 13.569s-17.697-8.367-17.697-19.492c0-12.375 5.971-20.784 17.661-20.784s15.867 8.909 15.867 14.646h-8.221c0-3.237-2.729-7.646-7.718-7.646-6.613 0-8.867 5.16-8.867 13.784s3.606 12.528 8.867 12.528zM1088.572 490.448l8.221-27.785h9.01l-13.461 38.841h-7.574l-13.569-38.841h9.046l8.327 27.785zM1171.997 490.951c0-3.776-4.58-4.692-8.293-5.708-2.082-.431-3.979-.969-5.689-1.616-1.711-.646-8.274-3.28-8.274-9.908s6.167-11.774 15.005-11.774 15.544 4.979 15.544 12.384h-8.723c0-2.238-1.493-5.851-6.821-5.851s-6.497 3.318-6.497 4.882c0 1.564.919 3.064 4.093 4.218 1.028.347 8.142 2.064 9.925 2.71s8.311 2.92 8.311 10.195-6.536 11.738-15.723 11.738-16.405-5.464-16.405-12.959h8.472c0 3.245 2.752 6.426 8.041 6.426s7.034-2.711 7.034-4.737zM1058.706 490.951c0-3.776-4.58-4.692-8.293-5.708-2.082-.431-3.979-.969-5.689-1.616-1.711-.646-8.274-3.28-8.274-9.908s6.167-11.774 15.005-11.774 15.544 4.979 15.544 12.384h-8.723c0-2.238-1.493-5.851-6.821-5.851s-6.497 3.318-6.497 4.882c0 1.564.919 3.064 4.093 4.218 1.028.347 8.142 2.064 9.925 2.71s8.311 2.92 8.311 10.195-6.536 11.738-15.723 11.738-16.405-5.464-16.405-12.959h8.472c0 3.245 2.752 6.426 8.041 6.426s7.034-2.711 7.034-4.737zM958.265 402.73c0-3.776-4.58-4.692-8.293-5.708-2.082-.431-3.979-.969-5.689-1.616-1.711-.646-8.274-3.28-8.274-9.908s6.167-11.774 15.005-11.774 15.544 4.979 15.544 12.384h-8.723c0-2.238-1.493-5.851-6.821-5.851s-6.497 3.318-6.497 4.882.919 3.064 4.093 4.218c1.028.347 8.142 2.064 9.925 2.71s8.311 2.92 8.311 10.195S960.31 414 951.123 414s-16.405-5.464-16.405-12.959h8.472c0 3.245 2.752 6.426 8.041 6.426s7.034-2.712 7.034-4.737zM1199.1 453.223v9.441h6.855v6.461h-6.855v21.682c0 3.618 1.484 4.701 7.071 3.841v6.749c-9.921 2.362-15.795-.721-15.795-10.087v-22.185h-6.39v-6.461h6.39v-9.441h8.724zM1107.885 365.034v9.441h6.855v6.461h-6.855v21.682c0 3.618 1.484 4.701 7.071 3.841v6.749c-9.921 2.362-15.795-.722-15.795-10.087v-22.185h-6.39v-6.461h6.39v-9.441h8.724zM985.368 365.034v9.441h6.855v6.461h-6.855v21.682c0 3.618 1.484 4.701 7.071 3.841v6.749c-9.921 2.362-15.795-.722-15.795-10.087v-22.185h-6.39v-6.461h6.39v-9.441h8.724zM944.696 550.885l.251 4.056c1.292-1.507 4.555-4.774 11.2-4.774s9.686 3.55 10.662 5.959c1.292-1.819 4.81-5.959 11.917-5.959 8.774 0 12.78 5.175 12.78 14.395v25.164h-8.723v-25.2c0-4.684-1.813-7.215-6.964-7.215s-7.466 4.244-7.466 6.533v25.882h-8.723v-25.092c0-4.875-2.163-7.323-7-7.323s-6.761 2.956-7.431 4.271v28.144h-8.723v-38.841h8.22zM1000.48 540.798c0-2.79 1.899-4.667 4.918-4.667s4.954 2.04 4.954 4.667-1.806 4.595-4.954 4.595-4.918-1.805-4.918-4.595zm9.261 48.928h-8.723v-38.841h8.723v38.841zM1018.178 452.577c0-2.79 1.899-4.667 4.918-4.667s4.954 2.04 4.954 4.667-1.806 4.595-4.954 4.595-4.918-1.806-4.918-4.595zm9.261 48.927h-8.723v-38.841h8.723v38.841zM998.901 364.356c0-2.79 1.899-4.667 4.918-4.667s4.954 2.04 4.954 4.667-1.806 4.595-4.954 4.595-4.918-1.806-4.918-4.595zm9.261 48.927h-8.723v-38.841h8.723v38.841zM1121.435 364.356c0-2.79 1.899-4.667 4.918-4.667s4.954 2.04 4.954 4.667-1.806 4.595-4.954 4.595-4.918-1.806-4.918-4.595zm9.262 48.927h-8.723v-38.841h8.723v38.841zM1212.633 452.577c0-2.79 1.899-4.667 4.918-4.667s4.954 2.04 4.954 4.667-1.806 4.595-4.954 4.595-4.918-1.806-4.918-4.595zm9.261 48.927h-8.723v-38.841h8.723v38.841zM1074.429 550.167c5.988 0 8.759 2.92 9.979 4.308v-19.887h8.723v55.138h-7.897l-.431-4.021c-1.244 1.508-4.59 4.738-10.446 4.738-6.606 0-15.256-5.324-15.256-19.671s7.149-20.605 15.328-20.605zm-6.606 20.605c0 9.361 4.177 12.564 8.759 12.564 5.074 0 7.084-3.338 7.826-4.774v-16.584c-.742-1.436-2.787-4.667-7.754-4.667-5.342 0-8.831 4.1-8.831 13.461zM1032.931 550.167c5.988 0 8.759 2.92 9.979 4.308v-19.887h8.723v55.138h-7.897l-.431-4.021c-1.244 1.508-4.59 4.738-10.446 4.738-6.606 0-15.256-5.324-15.256-19.671s7.149-20.605 15.328-20.605zm-6.606 20.605c0 9.361 4.177 12.564 8.759 12.564 5.074 0 7.084-3.338 7.826-4.774v-16.584c-.742-1.436-2.787-4.667-7.754-4.667-5.341 0-8.831 4.1-8.831 13.461zM1119.336 590.443c-9.919 0-18.595-6.402-18.595-19.21 0-13.975 8.171-21.066 17.59-21.066s16.584 6.008 16.584 19.169v3.733h-25.379c.63 6.356 4.808 10.41 10.303 10.41s8.591-3.338 9.764-4.846l4.702 4.487c-.622.934-5.05 7.323-14.969 7.323zm-1.041-33.276c-5.295 0-8.295 5.008-8.615 9.513h16.62c0-5.588-2.71-9.513-8.005-9.513zM1127.879 502.222c-9.919 0-18.595-6.402-18.595-19.21 0-13.975 8.171-21.066 17.59-21.066s16.584 6.008 16.584 19.169v3.733h-25.379c.63 6.356 4.808 10.41 10.303 10.41s8.591-3.338 9.764-4.846l4.702 4.487c-.622.934-5.05 7.323-14.969 7.323zm-1.041-33.276c-5.295 0-8.295 5.008-8.615 9.513h16.62c0-5.588-2.71-9.513-8.005-9.513zM1307.761 590.443c-9.919 0-18.595-6.402-18.595-19.21 0-13.975 8.171-21.066 17.59-21.066s16.584 6.008 16.584 19.169v3.733h-25.379c.63 6.356 4.808 10.41 10.303 10.41s8.591-3.338 9.764-4.846l4.702 4.487c-.623.934-5.05 7.323-14.969 7.323zm-1.041-33.276c-5.295 0-8.295 5.008-8.615 9.513h16.62c0-5.588-2.71-9.513-8.005-9.513zM1388.602 590.443c-9.919 0-18.595-6.402-18.595-19.21 0-13.975 8.171-21.066 17.59-21.066s16.584 6.008 16.584 19.169v3.733h-25.379c.63 6.356 4.808 10.41 10.303 10.41s8.591-3.338 9.764-4.846l4.702 4.487c-.623.934-5.05 7.323-14.969 7.323zm-1.041-33.276c-5.295 0-8.295 5.008-8.615 9.513h16.62c-.001-5.588-2.711-9.513-8.005-9.513zM1149.777 550.885l.251 4.487c1.364-1.651 4.81-5.205 11.308-5.205s12.349 2.925 12.349 14.466v25.092h-8.723v-25.164c0-5.053-2.181-7.251-6.821-7.251s-7.071 3.315-7.861 4.774v27.641h-8.723v-38.841h8.22zM945.09 446.366V466.9c1.364-1.651 4.559-4.954 11.057-4.954s12.349 2.925 12.349 14.466v25.092h-8.723V476.34c0-5.053-2.181-7.251-6.821-7.251s-7.071 3.315-7.861 4.774v27.641h-8.723v-55.138h8.722zM1064.736 358.145v20.533c1.364-1.651 4.559-4.954 11.057-4.954s12.349 2.925 12.349 14.466v25.092h-8.723v-25.164c0-5.053-2.181-7.251-6.821-7.251s-7.071 3.315-7.861 4.774v27.641h-8.723v-55.138h8.722zM1001.036 501.504l-.203-3.704c-1.364 1.651-4.859 4.422-11.356 4.422-6.227 0-12.349-3.214-12.349-14.466v-25.092h8.723v25.164c0 5.053 1.815 7.251 6.821 7.251 4.641 0 7.494-2.945 7.861-4.774v-27.641h8.723v38.841h-8.22zM1239.484 462.664l.251 4.487c1.364-1.651 4.81-5.205 11.308-5.205s12.349 2.925 12.349 14.466v25.092h-8.723V476.34c0-5.053-2.181-7.251-6.821-7.251s-7.071 3.315-7.861 4.774v27.641h-8.723v-38.841h8.22zM1148.27 374.442l.251 4.487c1.364-1.651 4.81-5.205 11.308-5.205s12.349 2.925 12.349 14.466v25.092h-8.723v-25.164c0-5.053-2.181-7.251-6.821-7.251s-7.071 3.315-7.861 4.774v27.641h-8.723v-38.841h8.22zM1419.042 551.244l.251 4.487c1.364-1.651 4.81-5.205 11.308-5.205s12.349 2.925 12.349 14.466v25.092h-8.723V564.92c0-5.053-2.181-7.251-6.821-7.251s-7.071 3.315-7.861 4.774v27.641h-8.723v-38.841h8.22zM1181.043 570.018c0-15.76 9.297-19.851 15.544-19.851s9.226 3.147 10.446 4.63l.395-3.913h7.861v37.764c0 11.693-8.641 16.369-17.59 16.369s-13.677-5.253-14.538-6.425l4.128-5.241c1.437 1.699 4.689 4.774 9.908 4.774s9.369-2.867 9.369-9.261v-2.621c-1.221 1.364-4.12 4.2-10.052 4.2-6.514 0-15.471-4.665-15.471-20.425zm8.687.754c0 7.903 3.52 12.564 9.01 12.564 4.593 0 7.06-3.159 7.826-4.523v-17.087c-.767-1.364-2.691-4.415-7.754-4.415-6.062 0-9.082 5.558-9.082 13.461zM1270.75 481.797c0-15.76 9.297-19.851 15.544-19.851s9.226 3.147 10.446 4.63l.395-3.913h7.861v37.764c0 11.693-8.641 16.369-17.59 16.369s-13.677-5.253-14.538-6.425l4.128-5.241c1.437 1.699 4.689 4.774 9.908 4.774s9.369-2.867 9.369-9.261v-2.621c-1.221 1.364-4.12 4.2-10.052 4.2-6.514 0-15.471-4.665-15.471-20.425zm8.688.754c0 7.903 3.52 12.564 9.01 12.564 4.593 0 7.06-3.159 7.826-4.523v-17.087c-.767-1.364-2.691-4.415-7.754-4.415-6.063-.001-9.082 5.558-9.082 13.461zM1179.535 393.576c0-15.76 9.297-19.851 15.544-19.851s9.226 3.147 10.446 4.63l.395-3.913h7.861v37.764c0 11.693-8.641 16.369-17.59 16.369s-13.677-5.253-14.538-6.425l4.128-5.241c1.437 1.699 4.689 4.774 9.908 4.774s9.369-2.867 9.369-9.261v-2.621c-1.221 1.364-4.12 4.2-10.052 4.2-6.514 0-15.471-4.665-15.471-20.425zm8.688.754c0 7.903 3.52 12.564 9.01 12.564 4.593 0 7.06-3.159 7.826-4.523v-17.087c-.767-1.364-2.691-4.415-7.754-4.415-6.063-.001-9.082 5.558-9.082 13.461zM1244.581 558.854c-4.331-.596-8.914-.679-11.631 4.308v26.564h-8.723v-38.841h8.328l.216 4.344c2.312-3.72 6.229-6.189 11.846-4.559-.023 1.213-.036 8.184-.036 8.184zM1265.187 550.167c13.313 0 18.092 10.341 18.092 20.533 0 9.641-5.346 19.743-18.021 19.743s-18.092-10.051-18.092-19.743 4.707-20.533 18.021-20.533zm-9.298 20.533c0 6.308 2.627 12.779 9.369 12.779s9.334-6.337 9.334-12.779-1.969-13.533-9.405-13.533-9.298 7.225-9.298 13.533zM1364.119 570.7c0 16.725-9.283 19.743-15.076 19.743s-8.987-2.836-10.231-4.2v18.415h-8.723v-53.774h8.041l.359 3.949c1.244-1.508 4.297-4.667 10.445-4.667s15.185 3.81 15.185 20.534zm-17.625-13.389c-4.911 0-6.964 3.051-7.683 4.415v17.231c1.188 2.302 3.653 4.523 7.754 4.523s8.867-2.837 8.867-12.779-4.027-13.39-8.938-13.39z"/></svg>