<?xml version="1.0" encoding="utf-8"?><!DOCTYPE svg PUBLIC "-//W3C//DTD SVG 1.1//EN" "http://www.w3.org/Graphics/SVG/1.1/DTD/svg11.dtd"><svg version="1.1" xmlns="http://www.w3.org/2000/svg" xmlns:xlink="http://www.w3.org/1999/xlink" viewBox="0 0 2000 640"><linearGradient id="yellow-gradient" gradientUnits="userSpaceOnUse" x1="339.1272" y1="227.3188" x2="841.6033" y2="92.6807"><stop  offset="0" style="stop-color:#E8621A"/><stop  offset="0.5066" style="stop-color:#F29230"/><stop  offset="1" style="stop-color:#FCEE21"/></linearGradient><view id="stichting" viewBox="0 0 2000 640"></view><view id="woningfonds" viewBox="0 640 2000 640"></view><view id="koopgarantfonds" viewBox="0 1280 2000 640"></view><view id="vinci" viewBox="0 1920 2000 640"></view><g transform="translateY(0,1920)"><rect x="272" y="375.008" fill="#FFFFFF" width="45" height="211"/><rect x="769" y="375.008" fill="#FFFFFF" width="45" height="211"/><path fill="#FFFFFF" d="M294,283.008c-18.5,0-28,10.5-28,28s10,28,28,28s28-10.5,28-28S312.5,283.008,294,283.008z"/><path fill="#FFFFFF" d="M790,283.008c-18.5,0-28,10.5-28,28s10,28,28,28s28-10.5,28-28S808.5,283.008,790,283.008z"/><polygon fill="#FFFFFF" points="140.619,530.225 82,375.008 32,375.008 113,586.008 163,586.008 240,375.008 195,375.008"/><path fill="#FFFFFF" d="M451.5,367.008c-52.833,0-95.5,19-95.5,49c0,23.667,0,170,0,170h44c0,0,0-151.333,0-159 c0-7.667,16-19,51.5-19s47.5,10.667,47.5,18c0,7.333,0,160,0,160h44c0,0,0-151,0-171C543,386.008,504.333,367.008,451.5,367.008z" /><path fill="#FFFFFF" d="M640,415.008c22.333-14,84-1,84-1s6.886-27.774,9-36c-37.5-7.333-95.333-8.333-119,7 c-23.667,15.333-38,39.667-38,95.5s21.333,84.5,42,98.5s60,17,103,10c0.667-4,6-39,6-39s-66,11.333-86-1 c-20-12.333-24.124-39.333-24.124-68.5C616.876,451.342,617.667,429.008,640,415.008z"/></g><g transform="translate(0,1280)"><path fill="url(#yellow-gradient)" d="M622.667,266.008l-32-41.333L568,247.342l55.333,71c0,0,189.333-282.333,199.333-296.333 c-41.301-3.902-84.667-8-129.333,3.333c-44.667,11.333-73.74,31.252-84.667,48.667c-21.333,34-80.044,126.215-95.217,150.061 c-15.173,23.846-45.45,19.939-55.098,8.808c-9.648-11.131-98.229-131.237-98.229-131.237s42.544,1.685,63.997,2.5 c21.451,0.814,48.711,27.038,41.881,19.869c5.322,5.586,40.332,42.332,40.332,42.332l22.333-21c0,0-27.482-28.602-40.55-42.201 S446,75.342,409.333,74.008c-36.667-1.333-112-2.667-112-2.667S421.27,236.056,434.12,253.133 c6.818,9.061,29.214,20.209,57.88,16.876c28.667-3.333,42.836-23.002,47.114-30.375c9.114-15.708,81.367-129.248,93.489-148.504 c12.122-19.256,66.73-47.788,136.815-43.422C764.837,50.739,622.667,266.008,622.667,266.008z"/><rect x="272" y="375.008" fill="#F18D2B" width="45" height="211"/><rect x="769" y="375.008" fill="#F18D2B" width="45" height="211"/><path fill="#F18D2B" d="M294,283.008c-18.5,0-28,10.5-28,28s10,28,28,28s28-10.5,28-28S312.5,283.008,294,283.008z"/><path fill="#F18D2B" d="M790,283.008c-18.5,0-28,10.5-28,28s10,28,28,28s28-10.5,28-28S808.5,283.008,790,283.008z"/><polygon fill="#F18D2B" points="140.619,530.225 82,375.008 32,375.008 113,586.008 163,586.008 240,375.008 195,375.008"/><path fill="#F18D2B" d="M451.5,367.008c-52.833,0-95.5,19-95.5,49c0,23.667,0,170,0,170h44c0,0,0-151.333,0-159 c0-7.667,16-19,51.5-19s47.5,10.667,47.5,18c0,7.333,0,160,0,160h44c0,0,0-151,0-171C543,386.008,504.333,367.008,451.5,367.008z" /><path fill="#F18D2B" d="M640,415.008c22.333-14,84-1,84-1s6.886-27.774,9-36c-37.5-7.333-95.333-8.333-119,7 c-23.667,15.333-38,39.667-38,95.5s21.333,84.5,42,98.5s60,17,103,10c0.667-4,6-39,6-39s-66,11.333-86-1 c-20-12.333-24.124-39.333-24.124-68.5C616.876,451.342,617.667,429.008,640,415.008z"/><path fill="#F18D2B" d="M953.658,550.282l-7.183,7.382v23.478h-16.162V478.985h16.162v58.926l24.94-28.731h19.42L964.1,539.175 l29.596,41.967h-18.689L953.658,550.282z"/><path fill="#F18D2B" d="M998.351,544.496c0-24.654,16.292-36.646,33.387-36.646c17.095,0,33.52,11.467,33.52,36.646 c0,25.179-14.599,37.976-33.387,37.976C1013.083,582.472,998.351,569.15,998.351,544.496z M1031.871,569.569 c12.629,0,17.293-11.215,17.293-24.409c0-13.194-5.688-24.342-17.426-24.342s-17.225,11.164-17.225,24.677 S1019.242,569.569,1031.871,569.569z"/><path fill="#F18D2B" d="M1075.9,544.496c0-24.654,16.292-36.646,33.387-36.646s33.52,11.467,33.52,36.646 c0,25.179-14.599,37.976-33.387,37.976S1075.9,569.15,1075.9,544.496z M1109.42,569.569c12.629,0,17.293-11.215,17.293-24.409 c0-13.194-5.688-24.342-17.426-24.342s-17.225,11.164-17.225,24.677S1096.791,569.569,1109.42,569.569z"/><path fill="#F18D2B" d="M1669.949,543.831c0-24.654,16.292-36.646,33.387-36.646s33.52,11.467,33.52,36.646 c0,25.179-14.599,37.976-33.387,37.976S1669.949,568.485,1669.949,543.831z M1703.469,568.904 c12.629,0,17.293-11.215,17.293-24.409c0-13.194-5.688-24.342-17.426-24.342s-17.225,11.164-17.225,24.677 S1690.841,568.904,1703.469,568.904z"/><path fill="#F18D2B" d="M1219.491,545.892c0,25.616-12.991,36.58-27.934,36.58c-9.558,0-16.65-5.254-18.955-7.781v34.119h-16.161 V509.18h14.897l0.665,7.316c2.306-2.793,7.463-8.646,19.354-8.646C1208,507.85,1219.491,520.276,1219.491,545.892z M1186.836,521.085c-7.836,0-12.903,5.653-14.233,8.18v31.924c1.33,2.527,6.147,8.38,14.366,8.38 c6.281,0,16.428-4.543,16.428-23.677S1194.672,521.085,1186.836,521.085z"/>
	<path fill="#F18D2B" d="M1230.332,544.629c0-26.621,14.928-36.779,28.798-36.779c12.037,0,16.687,5.658,19.354,8.58l0.731-7.25
		h14.565v69.967c0,21.945-16.314,30.328-32.589,30.328s-25.34-9.733-26.936-11.905l7.648-9.71c2.66,3.148,8.615,8.846,18.355,8.846
		s17.359-5.196,17.359-17.159v-4.855c-2.262,2.527-7.453,7.781-18.623,7.781C1244.917,582.472,1230.332,571.25,1230.332,544.629z
		 M1263.12,569.303c9.13,0,13.079-5.853,14.499-8.38v-31.658c-1.42-2.527-5.203-8.18-14.366-8.18
		c-6.67,0-16.826,4.498-16.826,23.544C1246.427,563.675,1255.074,569.303,1263.12,569.303z"/>
	<path fill="#F18D2B" d="M1421.741,523.945c-15.991-2.937-20.352,5.32-21.549,7.981v49.216h-16.161V509.18h15.43l0.399,8.048
		c1.817-2.927,8.14-11.969,21.947-8.447C1421.808,510.26,1421.741,522.006,1421.741,523.945z"/>
	<path fill="#F18D2B" d="M1472.952,581.142c-0.443-0.842-1.641-5.387-1.862-6.717c-1.063,1.109-7.123,8.047-18.888,8.047
		s-19.849-5.974-22.713-12.969s-3.009-19.602,6.751-26.205s19.885-6.353,34.318-6.119c0-0.796,0-4.722,0-4.722
		c0-6.074-3.34-12.304-12.637-12.304s-12.797,6.229-12.57,9.776h-16.161c0-9.797,9.765-22.081,29.662-22.081
		s27.867,11.409,27.867,24.741v31.924c0,12.806,3.468,15.119,2.727,16.627C1487.5,581.142,1472.952,581.142,1472.952,581.142z
		 M1455.195,569.503c7.93,0,12.242-3.932,15.363-8.58c0,0,0-11.596,0-13.568c-17.121-1.097-26.736,2.228-26.736,11.972
		C1443.822,564.821,1447.266,569.503,1455.195,569.503z"/>
	<path fill="#F18D2B" d="M1353.255,581.142c-0.443-0.842-1.641-5.387-1.862-6.717c-1.063,1.109-7.123,8.047-18.888,8.047
		s-19.849-5.974-22.713-12.969s-3.009-19.602,6.751-26.205s19.885-6.353,34.318-6.119c0-0.796,0-4.722,0-4.722
		c0-6.074-3.34-12.304-12.637-12.304s-12.797,6.229-12.57,9.776h-16.161c0-9.797,9.765-22.081,29.662-22.081
		s27.867,11.409,27.867,24.741v31.924c0,12.806,3.468,15.119,2.727,16.627C1367.803,581.142,1353.255,581.142,1353.255,581.142z
		 M1335.498,569.503c7.93,0,12.242-3.932,15.363-8.58c0,0,0-11.596,0-13.568c-17.121-1.097-26.736,2.228-26.736,11.972
		C1324.125,564.821,1327.568,569.503,1335.498,569.503z"/>
	<path fill="#F18D2B" d="M1518.644,509.18l0.466,8.314c2.527-3.059,9.635-9.644,20.95-9.644s22.879,5.072,22.879,26.803
		s0,46.489,0,46.489h-16.161c0,0,0-37.861,0-46.622s-3.871-13.435-12.637-13.435s-13.103,6.142-14.565,8.845v51.211h-16.161V509.18
		H1518.644z"/>
	<path fill="#F18D2B" d="M1765.521,509.18l0.466,8.314c2.527-3.059,9.635-9.644,20.95-9.644s22.879,5.072,22.879,26.803
		s0,46.489,0,46.489h-16.161c0,0,0-37.861,0-46.622s-3.871-13.435-12.637-13.435s-13.103,6.142-14.565,8.845v51.211h-16.161V509.18
		H1765.521z"/>
	<path fill="#F18D2B" d="M1599.651,491.689v17.491h12.703v11.972h-12.703c0,0,0,31.485,0,40.171s5.599,8.186,13.102,7.116v12.503
		c-1.286,0.354-9.86,2.99-18.057,0.466s-11.207-10.784-11.207-19.154s0-41.102,0-41.102h-11.838V509.18h11.838v-17.491H1599.651z"/>
	<path fill="#F18D2B" d="M1630.377,581.142v-59.99h-10.974V509.18h10.974v-6.784c0-24.054,20.623-27.221,34.318-23.61l-0.399,12.637
		c-9.463-1.914-17.758,0.266-17.758,10.974v6.784h14.632v11.972h-14.632v59.99H1630.377z"/>
	<path fill="#F18D2B" d="M1823.25,544.629c0-26.287,15.215-36.779,28.399-36.779c11.684,0,16.228,5.41,18.489,7.981v-36.845h16.161
		v102.156h-14.632l-0.798-7.449c-2.306,2.793-7.537,8.779-19.354,8.779C1837.667,582.472,1823.25,570.916,1823.25,544.629z
		 M1855.64,569.303c9.027,0,13.124-6.186,14.499-8.846v-30.727c-1.375-2.661-5.594-8.646-14.366-8.646s-16.36,5.831-16.36,23.544
		C1839.412,562.342,1846.613,569.303,1855.64,569.303z"/>
	<path fill="#F18D2B" d="M1943.497,561.589c0-6.08-5.664-7.913-15.363-10.575c-3.799-1.042-7.372-1.796-10.541-2.993
		c-3.171-1.197-15.33-6.033-15.33-18.356c0-12.323,12.196-21.815,27.8-21.815s28.798,8.659,28.798,22.945h-16.161
		c0-6.62-5.574-10.841-12.637-10.841s-12.038,3.662-12.038,9.045s5.675,7.172,7.582,7.814c1.906,0.643,4.807,1.33,7.183,1.896
		c14.544,3.465,26.604,7.396,26.604,22.014c0,14.618-14.203,21.748-29.131,21.748s-30.394-8.963-30.394-24.009h15.695
		c0.103,3.046,2.194,11.905,14.898,11.905C1938.833,570.367,1943.497,567.669,1943.497,561.589z"/>
</g>
<g transform="translate(0,640)">
	<path fill="url(#yellow-gradient)" d="M622.667,266.008l-32-41.333L568,247.342l55.333,71c0,0,189.333-282.333,199.333-296.333
		c-41.301-3.902-84.667-8-129.333,3.333c-44.667,11.333-73.74,31.252-84.667,48.667c-21.333,34-80.044,126.215-95.217,150.061
		c-15.173,23.846-45.45,19.939-55.098,8.808c-9.648-11.131-98.229-131.237-98.229-131.237s42.544,1.685,63.997,2.5
		c21.451,0.814,48.711,27.038,41.881,19.869c5.322,5.586,40.332,42.332,40.332,42.332l22.333-21c0,0-27.482-28.602-40.55-42.201
		S446,75.342,409.333,74.008c-36.667-1.333-112-2.667-112-2.667S421.27,236.056,434.12,253.133
		c6.818,9.061,29.214,20.209,57.88,16.876c28.667-3.333,42.836-23.002,47.114-30.375c9.114-15.708,81.367-129.248,93.489-148.504
		c12.122-19.256,66.73-47.788,136.815-43.422C764.837,50.739,622.667,266.008,622.667,266.008z"/>
	<rect x="272" y="375.008" fill="#F18D2B" width="45" height="211"/>
	<rect x="769" y="375.008" fill="#F18D2B" width="45" height="211"/>
	<path fill="#F18D2B" d="M294,283.008c-18.5,0-28,10.5-28,28s10,28,28,28s28-10.5,28-28S312.5,283.008,294,283.008z"/>
	<path fill="#F18D2B" d="M790,283.008c-18.5,0-28,10.5-28,28s10,28,28,28s28-10.5,28-28S808.5,283.008,790,283.008z"/>
	<polygon fill="#F18D2B" points="140.619,530.225 82,375.008 32,375.008 113,586.008 163,586.008 240,375.008 195,375.008 	"/>
	<path fill="#F18D2B" d="M451.5,367.008c-52.833,0-95.5,19-95.5,49c0,23.667,0,170,0,170h44c0,0,0-151.333,0-159
		c0-7.667,16-19,51.5-19s47.5,10.667,47.5,18c0,7.333,0,160,0,160h44c0,0,0-151,0-171C543,386.008,504.333,367.008,451.5,367.008z"
		/>
	<path fill="#F18D2B" d="M640,415.008c22.333-14,84-1,84-1s6.886-27.774,9-36c-37.5-7.333-95.333-8.333-119,7
		c-23.667,15.333-38,39.667-38,95.5s21.333,84.5,42,98.5s60,17,103,10c0.667-4,6-39,6-39s-66,11.333-86-1
		c-20-12.333-24.124-39.333-24.124-68.5C616.876,451.342,617.667,429.008,640,415.008z"/>
	<path fill="#F18D2B" d="M1037.926,544.496c0-24.654,16.292-36.646,33.387-36.646s33.52,11.467,33.52,36.646
		c0,25.179-14.599,37.976-33.387,37.976S1037.926,569.15,1037.926,544.496z M1071.446,569.569c12.629,0,17.293-11.215,17.293-24.409
		c0-13.194-5.688-24.342-17.426-24.342s-17.225,11.164-17.225,24.677S1058.817,569.569,1071.446,569.569z"/>
	<path fill="#F18D2B" d="M1579.784,543.831c0-24.654,16.292-36.646,33.387-36.646s33.52,11.467,33.52,36.646
		c0,25.179-14.599,37.976-33.387,37.976S1579.784,568.485,1579.784,543.831z M1613.304,568.904
		c12.629,0,17.293-11.215,17.293-24.409c0-13.194-5.688-24.342-17.426-24.342s-17.225,11.164-17.225,24.677
		S1600.676,568.904,1613.304,568.904z"/>
	<path fill="#F18D2B" d="M1304.086,544.629c0-26.621,14.928-36.779,28.798-36.779c12.037,0,16.687,5.658,19.354,8.58l0.731-7.25
		h14.565v69.967c0,21.945-16.314,30.328-32.589,30.328s-25.34-9.733-26.936-11.905l7.648-9.71c2.66,3.148,8.615,8.846,18.355,8.846
		s17.359-5.196,17.359-17.159v-4.855c-2.262,2.527-7.453,7.781-18.623,7.781C1318.671,582.472,1304.086,571.25,1304.086,544.629z
		 M1336.875,569.303c9.13,0,13.079-5.853,14.499-8.38v-31.658c-1.42-2.527-5.203-8.18-14.366-8.18
		c-6.67,0-16.826,4.498-16.826,23.544C1320.181,563.675,1328.828,569.303,1336.875,569.303z"/>
	<path fill="#F18D2B" d="M1473.439,509.18l0.466,8.314c2.527-3.059,9.635-9.644,20.95-9.644s22.879,5.072,22.879,26.803
		s0,46.489,0,46.489h-16.161c0,0,0-37.861,0-46.622s-3.871-13.435-12.637-13.435s-13.103,6.142-14.565,8.845v51.211h-16.161V509.18
		H1473.439z"/>
	<path fill="#F18D2B" d="M1245.548,509.18l0.466,8.314c2.527-3.059,9.635-9.644,20.95-9.644s22.879,5.072,22.879,26.803
		s0,46.489,0,46.489h-16.161c0,0,0-37.861,0-46.622s-3.871-13.435-12.637-13.435s-13.103,6.142-14.565,8.845v51.211h-16.161V509.18
		H1245.548z"/>
	<path fill="#F18D2B" d="M1134.118,509.18l0.466,8.314c2.527-3.059,9.635-9.644,20.95-9.644s22.879,5.072,22.879,26.803
		s0,46.489,0,46.489h-16.161c0,0,0-37.861,0-46.622s-3.871-13.435-12.637-13.435s-13.103,6.142-14.565,8.845v51.211h-16.161V509.18
		H1134.118z"/>
	<path fill="#F18D2B" d="M1675.356,509.18l0.466,8.314c2.527-3.059,9.635-9.644,20.95-9.644s22.879,5.072,22.879,26.803
		s0,46.489,0,46.489h-16.161c0,0,0-37.861,0-46.622s-3.871-13.435-12.637-13.435s-13.103,6.142-14.565,8.845v51.211h-16.161V509.18
		H1675.356z"/>
	<path fill="#F18D2B" d="M1540.212,581.142v-59.99h-10.974V509.18h10.974v-6.784c0-24.054,20.623-27.221,34.318-23.61l-0.399,12.637
		c-9.463-1.914-17.758,0.266-17.758,10.974v6.784h14.632v11.972h-14.632v59.99H1540.212z"/>
	<path fill="#F18D2B" d="M1733.085,544.629c0-26.287,15.215-36.779,28.399-36.779c11.684,0,16.228,5.41,18.489,7.981v-36.845h16.161
		v102.156h-14.632l-0.798-7.449c-2.306,2.793-7.537,8.779-19.354,8.779C1747.502,582.472,1733.085,570.916,1733.085,544.629z
		 M1765.475,569.303c9.027,0,13.124-6.186,14.499-8.846v-30.727c-1.375-2.661-5.594-8.646-14.366-8.646s-16.36,5.831-16.36,23.544
		C1749.247,562.342,1756.448,569.303,1765.475,569.303z"/>
	<path fill="#F18D2B" d="M1853.332,561.589c0-6.08-5.664-7.913-15.363-10.575c-3.799-1.042-7.372-1.796-10.541-2.993
		c-3.171-1.197-15.33-6.033-15.33-18.356c0-12.323,12.196-21.815,27.8-21.815s28.798,8.659,28.798,22.945h-16.161
		c0-6.62-5.574-10.841-12.637-10.841s-12.038,3.662-12.038,9.045s5.675,7.172,7.582,7.814c1.906,0.643,4.807,1.33,7.183,1.896
		c14.544,3.465,26.604,7.396,26.604,22.014c0,14.618-14.203,21.748-29.131,21.748s-30.394-8.963-30.394-24.009h15.695
		c0.103,3.046,2.194,11.905,14.898,11.905C1848.668,570.367,1853.332,567.669,1853.332,561.589z"/>
	<path fill="#F18D2B" d="M1002.388,559.284l11.532-50.084h15.89l-19.779,72.544h-13.409l-15.555-49.815l-15.286,49.815h-13.41
		L932.526,509.2h15.89l11.733,49.547l14.884-49.547h12.27L1002.388,559.284z"/>
	<path fill="#F18D2B" d="M1195.281,490.36c0-4.352,1.652-8.716,9.186-8.716s9.252,3.567,9.252,8.716s-3.119,8.582-9.252,8.582
		S1195.281,494.712,1195.281,490.36z M1212.578,581.744h-16.291V509.2h16.291V581.744z"/>
	<path fill="#F18D2B" d="M1416.467,583.085c-18.467,0-34.73-11.292-34.73-37.747s17.818-37.479,32.854-37.479
		s30.975,8.149,30.975,35.803v6.973h-47.4c0,10.874,8.523,19.443,19.242,19.443s16.045-6.235,18.236-9.051l8.783,8.381
		C1443.264,571.151,1434.934,583.085,1416.467,583.085z M1414.523,520.933c-12.148,0-15.332,12.18-16.092,17.767h31.043
		C1429.475,538.7,1430.125,520.933,1414.523,520.933z"/>
</g>
<g>
	<linearGradient id="purple-gradient" gradientUnits="userSpaceOnUse" x1="297.3333" y1="168.1499" x2="822.6667" y2="168.1499">
		<stop  offset="0" style="stop-color:#5A1E70"/>
		<stop  offset="0.5" style="stop-color:#A83D5A"/>
		<stop  offset="1" style="stop-color:#E75816"/>
	</linearGradient>
	<path fill="url(#purple-gradient)" d="M622.667,266.008l-32-41.333L568,247.342l55.333,71c0,0,189.333-282.333,199.333-296.333
		c-41.301-3.902-84.667-8-129.333,3.333c-44.667,11.333-73.74,31.252-84.667,48.667c-21.333,34-80.044,126.215-95.217,150.061
		c-15.173,23.846-45.45,19.939-55.098,8.808c-9.648-11.131-98.229-131.237-98.229-131.237s42.544,1.685,63.997,2.5
		c21.451,0.814,48.711,27.038,41.881,19.869c5.322,5.586,40.332,42.332,40.332,42.332l22.333-21c0,0-27.482-28.602-40.55-42.201
		S446,75.342,409.333,74.008c-36.667-1.333-112-2.667-112-2.667S421.27,236.056,434.12,253.133
		c6.818,9.061,29.214,20.209,57.88,16.876c28.667-3.333,42.836-23.002,47.114-30.375c9.114-15.708,81.367-129.248,93.489-148.504
		c12.122-19.256,66.73-47.788,136.815-43.422C764.837,50.739,622.667,266.008,622.667,266.008z"/>
	<rect x="272" y="375.008" fill="#581D70" width="45" height="211"/>
	<rect x="769" y="375.008" fill="#581D70" width="45" height="211"/>
	<path fill="#581D70" d="M294,283.008c-18.5,0-28,10.5-28,28s10,28,28,28s28-10.5,28-28S312.5,283.008,294,283.008z"/>
	<path fill="#581D70" d="M790,283.008c-18.5,0-28,10.5-28,28s10,28,28,28s28-10.5,28-28S808.5,283.008,790,283.008z"/>
	<polygon fill="#581D70" points="140.619,530.225 82,375.008 32,375.008 113,586.008 163,586.008 240,375.008 195,375.008 	"/>
	<path fill="#581D70" d="M451.5,367.008c-52.833,0-95.5,19-95.5,49c0,23.667,0,170,0,170h44c0,0,0-151.333,0-159
		c0-7.667,16-19,51.5-19s47.5,10.667,47.5,18c0,7.333,0,160,0,160h44c0,0,0-151,0-171C543,386.008,504.333,367.008,451.5,367.008z"
		/>
	<path fill="#581D70" d="M640,415.008c22.333-14,84-1,84-1s6.886-27.774,9-36c-37.5-7.333-95.333-8.333-119,7
		c-23.667,15.333-38,39.667-38,95.5s21.333,84.5,42,98.5s60,17,103,10c0.667-4,6-39,6-39s-66,11.333-86-1
		c-20-12.333-24.124-39.333-24.124-68.5C616.876,451.342,617.667,429.008,640,415.008z"/>
	<path fill="#581D70" d="M958.265,402.73c0-0.622-0.102-1.203-0.305-1.741c-0.204-0.539-0.604-1.041-1.202-1.508
		c-0.599-0.466-1.442-0.903-2.531-1.31c-1.089-0.407-2.507-0.79-4.254-1.148c-2.082-0.431-3.979-0.969-5.69-1.616
		c-1.711-0.646-3.177-1.43-4.397-2.351c-1.22-0.921-2.171-2.004-2.854-3.249c-0.682-1.244-1.023-2.68-1.023-4.308
		c0-1.579,0.347-3.081,1.041-4.505c0.694-1.424,1.693-2.674,2.998-3.751c1.304-1.077,2.884-1.932,4.739-2.566
		c1.854-0.634,3.931-0.951,6.228-0.951c2.417,0,4.588,0.317,6.515,0.951c1.926,0.634,3.56,1.508,4.9,2.621s2.363,2.423,3.069,3.931
		c0.706,1.508,1.059,3.135,1.059,4.882h-8.723c0-0.741-0.144-1.465-0.431-2.172c-0.287-0.706-0.718-1.333-1.292-1.884
		c-0.574-0.55-1.287-0.987-2.136-1.311c-0.85-0.323-1.837-0.484-2.961-0.484c-1.101,0-2.059,0.138-2.872,0.413
		c-0.813,0.275-1.49,0.634-2.028,1.077c-0.539,0.443-0.939,0.958-1.203,1.543c-0.264,0.587-0.395,1.203-0.395,1.849
		c0,0.646,0.12,1.221,0.359,1.723s0.664,0.958,1.274,1.364c0.61,0.407,1.43,0.784,2.459,1.131c1.029,0.347,2.321,0.688,3.877,1.023
		c2.249,0.479,4.266,1.041,6.049,1.687c1.782,0.646,3.29,1.436,4.523,2.369c1.232,0.934,2.172,2.035,2.818,3.303
		c0.646,1.269,0.969,2.776,0.969,4.523c0,1.723-0.371,3.303-1.113,4.738c-0.742,1.436-1.801,2.674-3.177,3.715
		c-1.376,1.042-3.034,1.849-4.972,2.423c-1.938,0.574-4.092,0.861-6.462,0.861c-2.656,0-5.007-0.377-7.054-1.13
		c-2.046-0.754-3.764-1.741-5.151-2.962c-1.388-1.22-2.435-2.603-3.141-4.146c-0.707-1.543-1.059-3.117-1.059-4.721h8.472
		c0.072,1.197,0.347,2.202,0.826,3.016c0.479,0.814,1.089,1.472,1.831,1.974c0.742,0.503,1.58,0.868,2.513,1.095
		c0.933,0.228,1.89,0.341,2.872,0.341c2.297,0,4.044-0.437,5.241-1.31S958.265,404.142,958.265,402.73z"/>
	<path fill="#581D70" d="M985.367,365.002v9.441h6.856v6.461h-6.856v21.682c0,0.886,0.095,1.604,0.287,2.154
		c0.191,0.551,0.467,0.975,0.826,1.274s0.784,0.502,1.274,0.61c0.49,0.108,1.035,0.162,1.633,0.162c0.598,0,1.178-0.042,1.741-0.125
		c0.562-0.083,0.999-0.162,1.31-0.233v6.749c-0.694,0.191-1.502,0.377-2.423,0.557c-0.922,0.18-2.028,0.269-3.321,0.269
		c-1.436,0-2.77-0.192-4.002-0.574c-1.233-0.382-2.297-1.005-3.195-1.867c-0.897-0.861-1.598-1.986-2.1-3.374
		c-0.502-1.388-0.754-3.087-0.754-5.098v-22.185h-6.39v-6.461h6.39v-9.441H985.367z"/>
	<path fill="#581D70" d="M998.901,364.356c0-1.34,0.424-2.453,1.274-3.339c0.849-0.885,2.064-1.328,3.644-1.328
		c1.579,0,2.8,0.443,3.661,1.328c0.862,0.886,1.292,1.999,1.292,3.339c0,1.316-0.431,2.411-1.292,3.284
		c-0.861,0.874-2.082,1.311-3.661,1.311c-1.58,0-2.794-0.437-3.644-1.311C999.325,366.767,998.901,365.672,998.901,364.356z
		 M1008.162,413.283h-8.723v-38.841h8.723V413.283z"/>
	<path fill="#581D70" d="M1033.613,407.037c1.053,0,2.04-0.162,2.961-0.485c0.921-0.323,1.724-0.777,2.405-1.364
		c0.683-0.586,1.232-1.286,1.651-2.1c0.419-0.813,0.652-1.699,0.7-2.656h8.221c-0.072,1.867-0.533,3.625-1.383,5.277
		s-1.986,3.093-3.41,4.326c-1.424,1.233-3.081,2.202-4.972,2.908s-3.912,1.059-6.066,1.059c-2.992,0-5.595-0.515-7.808-1.543
		c-2.214-1.029-4.057-2.429-5.528-4.2s-2.566-3.841-3.285-6.21c-0.718-2.369-1.077-4.882-1.077-7.539v-1.256
		c0-2.656,0.359-5.169,1.077-7.539c0.718-2.369,1.813-4.445,3.285-6.228c1.472-1.782,3.309-3.188,5.511-4.218
		c2.201-1.029,4.798-1.543,7.789-1.543c2.346,0,4.481,0.359,6.408,1.077c1.926,0.718,3.577,1.723,4.953,3.016
		c1.376,1.292,2.453,2.836,3.231,4.63c0.777,1.795,1.202,3.77,1.274,5.923h-8.221c-0.048-1.029-0.258-2.01-0.628-2.944
		c-0.372-0.933-0.886-1.747-1.544-2.441c-0.658-0.694-1.454-1.244-2.387-1.651c-0.934-0.406-1.987-0.61-3.159-0.61
		c-1.771,0-3.231,0.365-4.38,1.095s-2.059,1.682-2.728,2.854c-0.671,1.173-1.131,2.513-1.383,4.021
		c-0.251,1.508-0.377,3.028-0.377,4.559v1.256c0,1.58,0.126,3.118,0.377,4.613c0.252,1.496,0.712,2.831,1.383,4.003
		c0.669,1.172,1.573,2.118,2.71,2.835C1030.352,406.678,1031.818,407.037,1033.613,407.037z"/>
	<path fill="#581D70" d="M1064.736,378.678c1.34-1.555,2.92-2.77,4.738-3.644c1.818-0.874,3.842-1.31,6.067-1.31
		c1.89,0,3.613,0.264,5.169,0.79c1.556,0.527,2.884,1.37,3.984,2.531c1.101,1.161,1.95,2.669,2.549,4.523
		c0.598,1.855,0.897,4.099,0.897,6.731v24.984h-8.723v-25.056c0-2.68-0.581-4.577-1.741-5.69c-1.161-1.113-2.866-1.669-5.115-1.669
		c-1.819,0-3.381,0.419-4.685,1.256c-1.305,0.838-2.352,1.974-3.142,3.41v27.749h-8.723v-55.138h8.723V378.678z"/>
	<path fill="#581D70" d="M1107.885,365.002v9.441h6.855v6.461h-6.855v21.682c0,0.886,0.095,1.604,0.287,2.154
		c0.19,0.551,0.466,0.975,0.825,1.274s0.783,0.502,1.274,0.61c0.49,0.108,1.035,0.162,1.634,0.162c0.598,0,1.178-0.042,1.74-0.125
		c0.562-0.083,0.999-0.162,1.311-0.233v6.749c-0.694,0.191-1.502,0.377-2.423,0.557c-0.922,0.18-2.028,0.269-3.32,0.269
		c-1.437,0-2.771-0.192-4.003-0.574s-2.298-1.005-3.195-1.867c-0.897-0.861-1.597-1.986-2.1-3.374
		c-0.503-1.388-0.754-3.087-0.754-5.098v-22.185h-6.39v-6.461h6.39v-9.441H1107.885z"/>
	<path fill="#581D70" d="M1121.418,364.356c0-1.34,0.425-2.453,1.274-3.339c0.849-0.885,2.063-1.328,3.644-1.328
		c1.579,0,2.8,0.443,3.661,1.328c0.861,0.886,1.293,1.999,1.293,3.339c0,1.316-0.432,2.411-1.293,3.284
		c-0.861,0.874-2.082,1.311-3.661,1.311c-1.58,0-2.795-0.437-3.644-1.311C1121.843,366.767,1121.418,365.672,1121.418,364.356z
		 M1130.68,413.283h-8.724v-38.841h8.724V413.283z"/>
	<path fill="#581D70" d="M1148.27,374.442l0.251,4.487c1.364-1.651,3.003-2.932,4.918-3.841c1.914-0.909,4.044-1.364,6.39-1.364
		c1.866,0,3.56,0.257,5.079,0.771c1.52,0.515,2.818,1.346,3.896,2.495c1.076,1.148,1.908,2.645,2.494,4.487
		c0.587,1.843,0.88,4.081,0.88,6.713v25.092h-8.723v-25.164c0-1.34-0.15-2.471-0.449-3.392c-0.3-0.921-0.735-1.669-1.311-2.244
		c-0.574-0.574-1.286-0.987-2.136-1.238c-0.85-0.251-1.825-0.377-2.926-0.377c-1.795,0-3.356,0.431-4.685,1.292
		c-1.328,0.862-2.387,2.023-3.177,3.482v27.641h-8.723v-38.841H1148.27z"/>
	<path fill="#581D70" d="M1179.535,393.576c0-2.944,0.359-5.636,1.077-8.077c0.718-2.441,1.753-4.535,3.105-6.282
		c1.352-1.747,2.984-3.099,4.899-4.057c1.914-0.957,4.068-1.436,6.462-1.436c2.345,0,4.367,0.401,6.066,1.202
		c1.699,0.802,3.159,1.945,4.38,3.428l0.395-3.913h7.861v37.764c0,2.608-0.431,4.93-1.292,6.964
		c-0.861,2.034-2.064,3.745-3.607,5.133c-1.544,1.388-3.398,2.447-5.564,3.177s-4.541,1.095-7.126,1.095
		c-1.076,0-2.273-0.114-3.59-0.341c-1.316-0.228-2.645-0.599-3.984-1.113c-1.341-0.515-2.62-1.179-3.841-1.992
		c-1.221-0.814-2.262-1.807-3.123-2.979l4.128-5.241c1.437,1.699,2.998,2.919,4.685,3.662c1.688,0.742,3.429,1.113,5.224,1.113
		c2.896,0,5.181-0.784,6.856-2.351c1.675-1.568,2.513-3.872,2.513-6.91v-2.621c-1.221,1.364-2.656,2.405-4.308,3.123
		c-1.651,0.718-3.566,1.077-5.744,1.077c-2.369,0-4.505-0.497-6.407-1.49c-1.902-0.993-3.53-2.363-4.882-4.11
		c-1.353-1.747-2.388-3.823-3.105-6.229c-0.718-2.405-1.077-5.02-1.077-7.843V393.576z M1188.223,394.33
		c0,1.723,0.173,3.344,0.521,4.864c0.347,1.52,0.892,2.854,1.633,4.003c0.742,1.148,1.675,2.052,2.801,2.71
		c1.124,0.659,2.477,0.987,4.056,0.987c1.962,0,3.565-0.413,4.811-1.238c1.244-0.826,2.249-1.921,3.016-3.285v-17.087
		c-0.767-1.364-1.777-2.441-3.033-3.23c-1.257-0.79-2.831-1.185-4.721-1.185c-1.58,0-2.943,0.335-4.093,1.005
		c-1.148,0.67-2.088,1.58-2.817,2.728c-0.73,1.149-1.274,2.495-1.634,4.039c-0.358,1.543-0.538,3.189-0.538,4.936V394.33z"/>
	<path fill="#581D70" d="M945.09,466.9c1.34-1.555,2.919-2.77,4.739-3.644c1.818-0.874,3.841-1.31,6.066-1.31
		c1.89,0,3.613,0.264,5.169,0.79c1.555,0.527,2.883,1.37,3.984,2.531c1.101,1.161,1.95,2.669,2.549,4.523
		c0.598,1.855,0.897,4.099,0.897,6.731v24.984h-8.723v-25.056c0-2.68-0.581-4.577-1.741-5.69s-2.866-1.669-5.115-1.669
		c-1.819,0-3.38,0.419-4.685,1.256c-1.305,0.838-2.351,1.974-3.141,3.41v27.749h-8.723v-55.138h8.723V466.9z"/>
	<path fill="#581D70" d="M1000.839,497.699c-1.221,1.436-2.729,2.549-4.523,3.338c-1.795,0.79-3.925,1.185-6.39,1.185
		c-1.915,0-3.656-0.269-5.223-0.808c-1.568-0.539-2.914-1.388-4.039-2.549c-1.125-1.16-1.999-2.656-2.621-4.487
		c-0.623-1.831-0.933-4.026-0.933-6.587v-25.128h8.723v25.2c0,1.413,0.167,2.579,0.503,3.5c0.334,0.922,0.783,1.664,1.346,2.226
		c0.562,0.563,1.214,0.958,1.956,1.185c0.742,0.228,1.52,0.341,2.333,0.341c2.249,0,4.068-0.407,5.457-1.221
		c1.387-0.813,2.428-1.926,3.123-3.338v-27.892h8.723v38.841h-8.22L1000.839,497.699z"/>
	<path fill="#581D70" d="M1018.178,452.577c0-1.34,0.424-2.453,1.274-3.339c0.849-0.885,2.063-1.328,3.644-1.328
		c1.579,0,2.8,0.443,3.661,1.328c0.861,0.886,1.293,1.999,1.293,3.339c0,1.316-0.432,2.411-1.293,3.284
		c-0.861,0.874-2.082,1.311-3.661,1.311c-1.58,0-2.795-0.437-3.644-1.311C1018.602,454.988,1018.178,453.893,1018.178,452.577z
		 M1027.439,501.504h-8.724v-38.841h8.724V501.504z"/>
	<path fill="#581D70" d="M1058.706,490.951c0-0.622-0.103-1.203-0.306-1.741s-0.604-1.041-1.202-1.508
		c-0.599-0.466-1.442-0.903-2.531-1.31c-1.089-0.407-2.507-0.79-4.254-1.148c-2.082-0.431-3.979-0.969-5.689-1.616
		c-1.711-0.646-3.177-1.43-4.397-2.351c-1.221-0.921-2.172-2.004-2.854-3.249c-0.683-1.244-1.023-2.68-1.023-4.308
		c0-1.579,0.347-3.081,1.041-4.505c0.694-1.424,1.693-2.674,2.998-3.751c1.304-1.077,2.883-1.932,4.738-2.566
		c1.854-0.634,3.931-0.951,6.228-0.951c2.417,0,4.589,0.317,6.516,0.951c1.926,0.634,3.56,1.508,4.9,2.621
		c1.34,1.113,2.362,2.423,3.069,3.931c0.705,1.508,1.059,3.135,1.059,4.882h-8.723c0-0.741-0.144-1.465-0.432-2.172
		c-0.287-0.706-0.718-1.333-1.292-1.884c-0.574-0.55-1.286-0.987-2.136-1.311c-0.85-0.323-1.837-0.484-2.962-0.484
		c-1.101,0-2.058,0.138-2.871,0.413c-0.814,0.275-1.49,0.634-2.028,1.077c-0.539,0.443-0.939,0.958-1.203,1.543
		c-0.264,0.587-0.395,1.203-0.395,1.849c0,0.646,0.119,1.221,0.359,1.723c0.238,0.502,0.664,0.958,1.274,1.364
		c0.609,0.407,1.43,0.784,2.459,1.131c1.028,0.347,2.32,0.688,3.877,1.023c2.249,0.479,4.265,1.041,6.048,1.687
		s3.291,1.436,4.523,2.369c1.232,0.934,2.172,2.035,2.818,3.303c0.646,1.269,0.969,2.776,0.969,4.523
		c0,1.723-0.371,3.303-1.112,4.738c-0.742,1.436-1.802,2.674-3.178,3.715c-1.376,1.042-3.033,1.849-4.972,2.423
		s-4.092,0.861-6.461,0.861c-2.656,0-5.008-0.377-7.054-1.13c-2.047-0.754-3.764-1.741-5.151-2.962
		c-1.389-1.22-2.436-2.603-3.142-4.146s-1.059-3.117-1.059-4.721h8.472c0.072,1.197,0.347,2.202,0.825,3.016
		c0.479,0.814,1.089,1.472,1.831,1.974c0.741,0.503,1.58,0.868,2.513,1.095c0.934,0.228,1.891,0.341,2.872,0.341
		c2.298,0,4.044-0.437,5.241-1.31C1058.107,493.505,1058.706,492.363,1058.706,490.951z"/>
	<path fill="#581D70" d="M1088.572,490.448l8.221-27.785h9.01l-13.461,38.841h-7.574l-13.569-38.841h9.046L1088.572,490.448z"/>
	<path fill="#581D70" d="M1127.879,502.222c-2.872,0-5.456-0.479-7.754-1.436c-2.297-0.957-4.248-2.273-5.852-3.949
		c-1.604-1.675-2.835-3.662-3.697-5.959c-0.861-2.297-1.292-4.774-1.292-7.431v-1.436c0-3.063,0.454-5.833,1.364-8.31
		c0.909-2.477,2.153-4.583,3.733-6.318c1.579-1.735,3.439-3.075,5.582-4.021c2.142-0.945,4.444-1.418,6.91-1.418
		c2.823,0,5.276,0.473,7.358,1.418s3.806,2.268,5.17,3.966c1.363,1.7,2.381,3.722,3.051,6.067c0.67,2.346,1.005,4.918,1.005,7.718
		v3.733h-25.379c0.119,1.508,0.437,2.896,0.951,4.164c0.515,1.269,1.214,2.364,2.1,3.285c0.886,0.921,1.933,1.646,3.142,2.172
		c1.208,0.526,2.578,0.79,4.11,0.79c2.153,0,4.025-0.431,5.617-1.292c1.592-0.861,2.974-2.046,4.146-3.554l4.702,4.487
		c-0.622,0.933-1.394,1.837-2.314,2.71c-0.922,0.874-1.999,1.651-3.231,2.333s-2.626,1.233-4.182,1.651
		S1129.817,502.222,1127.879,502.222z M1126.838,468.946c-2.394,0-4.325,0.838-5.798,2.513c-1.472,1.675-2.411,4.009-2.817,7h16.62
		v-0.646c-0.071-1.148-0.257-2.255-0.557-3.32c-0.299-1.064-0.76-2.01-1.382-2.836s-1.43-1.483-2.423-1.974
		C1129.488,469.191,1128.273,468.946,1126.838,468.946z"/>
	<path fill="#581D70" d="M1171.997,490.951c0-0.622-0.103-1.203-0.306-1.741s-0.604-1.041-1.202-1.508
		c-0.599-0.466-1.442-0.903-2.531-1.31c-1.089-0.407-2.507-0.79-4.254-1.148c-2.082-0.431-3.979-0.969-5.689-1.616
		c-1.711-0.646-3.177-1.43-4.397-2.351c-1.221-0.921-2.172-2.004-2.854-3.249c-0.683-1.244-1.023-2.68-1.023-4.308
		c0-1.579,0.347-3.081,1.041-4.505c0.694-1.424,1.693-2.674,2.998-3.751c1.304-1.077,2.883-1.932,4.738-2.566
		c1.854-0.634,3.931-0.951,6.228-0.951c2.417,0,4.589,0.317,6.516,0.951c1.926,0.634,3.56,1.508,4.9,2.621
		c1.34,1.113,2.362,2.423,3.069,3.931c0.705,1.508,1.059,3.135,1.059,4.882h-8.723c0-0.741-0.144-1.465-0.432-2.172
		c-0.287-0.706-0.718-1.333-1.292-1.884c-0.574-0.55-1.286-0.987-2.136-1.311c-0.85-0.323-1.837-0.484-2.962-0.484
		c-1.101,0-2.058,0.138-2.871,0.413c-0.814,0.275-1.49,0.634-2.028,1.077c-0.539,0.443-0.939,0.958-1.203,1.543
		c-0.264,0.587-0.395,1.203-0.395,1.849c0,0.646,0.119,1.221,0.359,1.723c0.238,0.502,0.664,0.958,1.274,1.364
		c0.609,0.407,1.43,0.784,2.459,1.131c1.028,0.347,2.32,0.688,3.877,1.023c2.249,0.479,4.265,1.041,6.048,1.687
		s3.291,1.436,4.523,2.369c1.232,0.934,2.172,2.035,2.818,3.303c0.646,1.269,0.969,2.776,0.969,4.523
		c0,1.723-0.371,3.303-1.112,4.738c-0.742,1.436-1.802,2.674-3.178,3.715c-1.376,1.042-3.033,1.849-4.972,2.423
		s-4.092,0.861-6.461,0.861c-2.656,0-5.008-0.377-7.054-1.13c-2.047-0.754-3.764-1.741-5.151-2.962
		c-1.389-1.22-2.436-2.603-3.142-4.146s-1.059-3.117-1.059-4.721h8.472c0.072,1.197,0.347,2.202,0.825,3.016
		c0.479,0.814,1.089,1.472,1.831,1.974c0.741,0.503,1.58,0.868,2.513,1.095c0.934,0.228,1.891,0.341,2.872,0.341
		c2.298,0,4.044-0.437,5.241-1.31C1171.398,493.505,1171.997,492.363,1171.997,490.951z"/>
	<path fill="#581D70" d="M1199.1,453.223v9.441h6.855v6.461h-6.855v21.682c0,0.886,0.095,1.604,0.287,2.154
		c0.19,0.551,0.466,0.975,0.825,1.274s0.783,0.502,1.274,0.61c0.49,0.108,1.035,0.162,1.634,0.162c0.598,0,1.178-0.042,1.74-0.125
		c0.562-0.083,0.999-0.162,1.311-0.233v6.749c-0.694,0.191-1.502,0.377-2.423,0.557c-0.922,0.18-2.028,0.269-3.32,0.269
		c-1.437,0-2.771-0.192-4.003-0.574s-2.298-1.005-3.195-1.867c-0.897-0.861-1.597-1.986-2.1-3.374
		c-0.503-1.388-0.754-3.087-0.754-5.098v-22.185h-6.39v-6.461h6.39v-9.441H1199.1z"/>
	<path fill="#581D70" d="M1212.633,452.577c0-1.34,0.425-2.453,1.274-3.339c0.849-0.885,2.063-1.328,3.644-1.328
		c1.579,0,2.8,0.443,3.661,1.328c0.861,0.886,1.293,1.999,1.293,3.339c0,1.316-0.432,2.411-1.293,3.284
		c-0.861,0.874-2.082,1.311-3.661,1.311c-1.58,0-2.795-0.437-3.644-1.311C1213.058,454.988,1212.633,453.893,1212.633,452.577z
		 M1221.895,501.504h-8.724v-38.841h8.724V501.504z"/>
	<path fill="#581D70" d="M1239.484,462.664l0.251,4.487c1.364-1.651,3.003-2.932,4.918-3.841c1.914-0.909,4.044-1.364,6.39-1.364
		c1.866,0,3.56,0.257,5.079,0.771c1.52,0.515,2.818,1.346,3.896,2.495c1.076,1.148,1.908,2.645,2.494,4.487
		c0.587,1.843,0.88,4.081,0.88,6.713v25.092h-8.723V476.34c0-1.34-0.15-2.471-0.449-3.392c-0.3-0.921-0.735-1.669-1.311-2.244
		c-0.574-0.574-1.286-0.987-2.136-1.238c-0.85-0.251-1.825-0.377-2.926-0.377c-1.795,0-3.356,0.431-4.685,1.292
		c-1.328,0.862-2.387,2.023-3.177,3.482v27.641h-8.723v-38.841H1239.484z"/>
	<path fill="#581D70" d="M1270.75,481.797c0-2.944,0.359-5.636,1.077-8.077c0.718-2.441,1.753-4.535,3.105-6.282
		c1.352-1.747,2.984-3.099,4.899-4.057c1.914-0.957,4.068-1.436,6.462-1.436c2.345,0,4.367,0.401,6.066,1.202
		c1.699,0.802,3.159,1.945,4.38,3.428l0.395-3.913h7.861v37.764c0,2.608-0.431,4.93-1.292,6.964
		c-0.861,2.034-2.064,3.745-3.607,5.133c-1.544,1.388-3.398,2.447-5.564,3.177s-4.541,1.095-7.126,1.095
		c-1.076,0-2.273-0.114-3.59-0.341c-1.316-0.228-2.645-0.599-3.984-1.113c-1.341-0.515-2.62-1.179-3.841-1.992
		c-1.221-0.814-2.262-1.807-3.123-2.98l4.128-5.241c1.437,1.699,2.998,2.919,4.685,3.662c1.688,0.742,3.429,1.113,5.224,1.113
		c2.896,0,5.181-0.784,6.856-2.351c1.675-1.568,2.513-3.872,2.513-6.91v-2.621c-1.221,1.364-2.656,2.405-4.308,3.123
		c-1.651,0.718-3.566,1.077-5.744,1.077c-2.369,0-4.505-0.497-6.407-1.49c-1.902-0.993-3.53-2.363-4.882-4.11
		c-1.353-1.747-2.388-3.823-3.105-6.229c-0.718-2.405-1.077-5.02-1.077-7.843V481.797z M1279.438,482.551
		c0,1.723,0.173,3.344,0.521,4.864c0.347,1.52,0.892,2.854,1.633,4.003c0.742,1.148,1.675,2.052,2.801,2.71
		c1.124,0.659,2.477,0.987,4.056,0.987c1.962,0,3.565-0.413,4.811-1.238c1.244-0.826,2.249-1.921,3.016-3.285v-17.087
		c-0.767-1.364-1.777-2.441-3.033-3.23c-1.257-0.79-2.831-1.185-4.721-1.185c-1.58,0-2.943,0.335-4.093,1.005
		c-1.148,0.67-2.088,1.58-2.817,2.728c-0.73,1.149-1.274,2.495-1.634,4.039c-0.358,1.543-0.538,3.189-0.538,4.936V482.551z"/>
	<path fill="#581D70" d="M944.696,550.885l0.251,4.056c1.292-1.507,2.866-2.68,4.721-3.518c1.854-0.837,4.014-1.256,6.479-1.256
		c2.369,0,4.487,0.473,6.354,1.418c1.867,0.945,3.303,2.459,4.308,4.541c1.292-1.819,2.925-3.267,4.9-4.344
		c1.974-1.077,4.313-1.615,7.018-1.615c2.01,0,3.805,0.269,5.385,0.808s2.913,1.388,4.002,2.549c1.089,1.161,1.926,2.65,2.513,4.469
		c0.586,1.819,0.88,4.009,0.88,6.569v25.164h-8.723v-25.2c0-1.436-0.162-2.615-0.485-3.536c-0.323-0.921-0.79-1.657-1.4-2.208
		c-0.61-0.55-1.34-0.934-2.189-1.149c-0.85-0.215-1.813-0.323-2.89-0.323c-1.986,0-3.607,0.533-4.864,1.597
		c-1.256,1.065-2.136,2.459-2.639,4.182c0,0.12,0.006,0.246,0.018,0.377c0.012,0.132,0.018,0.257,0.018,0.377v25.882h-8.723v-25.092
		c0-1.364-0.162-2.513-0.484-3.446c-0.323-0.934-0.79-1.688-1.4-2.262c-0.61-0.574-1.346-0.987-2.208-1.238
		c-0.861-0.251-1.831-0.377-2.908-0.377c-1.867,0-3.405,0.383-4.613,1.148c-1.208,0.766-2.148,1.807-2.818,3.123v28.144h-8.723
		v-38.841H944.696z"/>
	<path fill="#581D70" d="M1000.48,540.798c0-1.34,0.424-2.453,1.274-3.339c0.849-0.885,2.064-1.328,3.644-1.328
		c1.579,0,2.8,0.443,3.661,1.328c0.862,0.886,1.292,1.999,1.292,3.339c0,1.316-0.431,2.411-1.292,3.284
		c-0.861,0.874-2.082,1.311-3.661,1.311c-1.58,0-2.794-0.437-3.644-1.311C1000.904,543.209,1000.48,542.114,1000.48,540.798z
		 M1009.741,589.726h-8.723v-38.841h8.723V589.726z"/>
	<path fill="#581D70" d="M1017.603,570.018c0-2.944,0.353-5.636,1.059-8.077c0.706-2.441,1.723-4.535,3.051-6.282
		c1.328-1.747,2.938-3.099,4.828-4.057c1.891-0.957,4.021-1.436,6.391-1.436c2.152,0,4.049,0.371,5.689,1.113
		c1.639,0.742,3.068,1.807,4.289,3.195v-19.887h8.723v55.138h-7.896l-0.432-4.021c-1.244,1.508-2.723,2.674-4.432,3.5
		c-1.713,0.826-3.717,1.238-6.014,1.238c-2.346,0-4.457-0.497-6.336-1.49c-1.879-0.993-3.477-2.363-4.793-4.11
		c-1.316-1.747-2.333-3.823-3.051-6.229c-0.718-2.405-1.077-5.02-1.077-7.843V570.018z M1026.326,570.772
		c0,1.723,0.162,3.344,0.484,4.864c0.322,1.52,0.838,2.854,1.543,4.003c0.707,1.148,1.609,2.052,2.711,2.71
		c1.1,0.659,2.441,0.987,4.02,0.987c1.963,0,3.572-0.437,4.83-1.311c1.256-0.873,2.254-2.028,2.996-3.464v-16.584
		c-0.742-1.436-1.746-2.572-3.016-3.41c-1.268-0.837-2.848-1.256-4.738-1.256c-1.578,0-2.926,0.335-4.037,1.005
		c-1.113,0.67-2.023,1.58-2.729,2.728c-0.707,1.149-1.227,2.495-1.562,4.039s-0.502,3.189-0.502,4.936V570.772z"/>
	<path fill="#581D70" d="M1059.101,570.018c0-2.944,0.353-5.636,1.059-8.077c0.706-2.441,1.724-4.535,3.052-6.282
		c1.328-1.747,2.938-3.099,4.828-4.057c1.89-0.957,4.021-1.436,6.39-1.436c2.153,0,4.05,0.371,5.689,1.113
		c1.639,0.742,3.069,1.807,4.29,3.195v-19.887h8.723v55.138h-7.897l-0.431-4.021c-1.244,1.508-2.723,2.674-4.433,3.5
		c-1.712,0.826-3.716,1.238-6.014,1.238c-2.346,0-4.457-0.497-6.335-1.49c-1.88-0.993-3.477-2.363-4.793-4.11
		c-1.316-1.747-2.333-3.823-3.051-6.229c-0.718-2.405-1.077-5.02-1.077-7.843V570.018z M1067.823,570.772
		c0,1.723,0.162,3.344,0.485,4.864c0.322,1.52,0.837,2.854,1.543,4.003c0.706,1.148,1.609,2.052,2.71,2.71
		c1.101,0.659,2.441,0.987,4.021,0.987c1.963,0,3.572-0.437,4.829-1.311c1.256-0.873,2.255-2.028,2.997-3.464v-16.584
		c-0.742-1.436-1.747-2.572-3.016-3.41c-1.269-0.837-2.848-1.256-4.738-1.256c-1.579,0-2.926,0.335-4.038,1.005
		c-1.113,0.67-2.022,1.58-2.729,2.728c-0.706,1.149-1.227,2.495-1.562,4.039c-0.336,1.543-0.503,3.189-0.503,4.936V570.772z"/>
	<path fill="#581D70" d="M1119.336,590.443c-2.872,0-5.456-0.479-7.754-1.436c-2.297-0.957-4.248-2.273-5.852-3.949
		c-1.604-1.675-2.835-3.662-3.697-5.959c-0.861-2.297-1.292-4.774-1.292-7.431v-1.436c0-3.063,0.454-5.833,1.364-8.31
		c0.909-2.477,2.153-4.583,3.733-6.318c1.579-1.735,3.439-3.075,5.582-4.021c2.142-0.945,4.444-1.418,6.91-1.418
		c2.823,0,5.276,0.473,7.358,1.418s3.806,2.268,5.17,3.966c1.363,1.7,2.381,3.722,3.051,6.067c0.67,2.346,1.005,4.918,1.005,7.718
		v3.733h-25.379c0.119,1.508,0.437,2.896,0.951,4.164c0.515,1.269,1.214,2.364,2.1,3.285c0.886,0.921,1.933,1.646,3.142,2.172
		c1.208,0.526,2.578,0.79,4.11,0.79c2.153,0,4.025-0.431,5.617-1.292c1.592-0.861,2.974-2.046,4.146-3.554l4.702,4.487
		c-0.622,0.933-1.394,1.837-2.314,2.71c-0.922,0.874-1.999,1.651-3.231,2.333s-2.626,1.233-4.182,1.651
		S1121.274,590.443,1119.336,590.443z M1118.295,557.167c-2.394,0-4.325,0.838-5.798,2.513c-1.472,1.675-2.411,4.009-2.817,7h16.62
		v-0.646c-0.071-1.148-0.257-2.255-0.557-3.32c-0.299-1.064-0.76-2.01-1.382-2.836s-1.43-1.483-2.423-1.974
		C1120.945,557.413,1119.73,557.167,1118.295,557.167z"/>
	<path fill="#581D70" d="M1149.777,550.885l0.251,4.487c1.364-1.651,3.003-2.932,4.918-3.841c1.914-0.909,4.044-1.364,6.39-1.364
		c1.866,0,3.56,0.257,5.079,0.771c1.52,0.515,2.818,1.346,3.896,2.495c1.076,1.148,1.908,2.645,2.494,4.487
		c0.587,1.843,0.88,4.081,0.88,6.713v25.092h-8.723v-25.164c0-1.34-0.15-2.471-0.449-3.392c-0.3-0.921-0.735-1.669-1.311-2.244
		c-0.574-0.574-1.286-0.987-2.136-1.238c-0.85-0.251-1.825-0.377-2.926-0.377c-1.795,0-3.356,0.431-4.685,1.292
		c-1.328,0.862-2.387,2.023-3.177,3.482v27.641h-8.723v-38.841H1149.777z"/>
	<path fill="#581D70" d="M1181.043,570.018c0-2.944,0.359-5.636,1.077-8.077c0.718-2.441,1.753-4.535,3.105-6.282
		c1.352-1.747,2.984-3.099,4.899-4.057c1.914-0.957,4.068-1.436,6.462-1.436c2.345,0,4.367,0.401,6.066,1.202
		c1.699,0.802,3.159,1.945,4.38,3.428l0.395-3.913h7.861v37.764c0,2.608-0.431,4.93-1.292,6.964
		c-0.861,2.034-2.064,3.745-3.607,5.133c-1.544,1.388-3.398,2.447-5.564,3.177s-4.541,1.095-7.126,1.095
		c-1.076,0-2.273-0.114-3.59-0.341c-1.316-0.228-2.645-0.599-3.984-1.113c-1.341-0.515-2.62-1.179-3.841-1.992
		c-1.221-0.814-2.262-1.807-3.123-2.979l4.128-5.241c1.437,1.699,2.998,2.919,4.685,3.662c1.688,0.742,3.429,1.113,5.224,1.113
		c2.896,0,5.181-0.784,6.856-2.351c1.675-1.568,2.513-3.872,2.513-6.91v-2.621c-1.221,1.364-2.656,2.405-4.308,3.123
		c-1.651,0.718-3.566,1.077-5.744,1.077c-2.369,0-4.505-0.497-6.407-1.49c-1.902-0.993-3.53-2.363-4.882-4.11
		c-1.353-1.747-2.388-3.823-3.105-6.229c-0.718-2.405-1.077-5.02-1.077-7.843V570.018z M1189.73,570.772
		c0,1.723,0.173,3.344,0.521,4.864c0.347,1.52,0.892,2.854,1.633,4.003c0.742,1.148,1.675,2.052,2.801,2.71
		c1.124,0.659,2.477,0.987,4.056,0.987c1.962,0,3.565-0.413,4.811-1.238c1.244-0.826,2.249-1.921,3.016-3.285v-17.087
		c-0.767-1.364-1.777-2.441-3.033-3.23c-1.257-0.79-2.831-1.185-4.721-1.185c-1.58,0-2.943,0.335-4.093,1.005
		c-1.148,0.67-2.088,1.58-2.817,2.728c-0.73,1.149-1.274,2.495-1.634,4.039c-0.358,1.543-0.538,3.189-0.538,4.936V570.772z"/>
	<path fill="#581D70" d="M1244.581,558.854c-0.574-0.095-1.154-0.167-1.74-0.215c-0.587-0.048-1.191-0.072-1.813-0.072
		c-2.106,0-3.817,0.407-5.133,1.22c-1.316,0.814-2.298,1.938-2.944,3.375v26.564h-8.723v-38.841h8.328l0.216,4.344
		c0.98-1.58,2.195-2.818,3.644-3.715c1.447-0.897,3.152-1.346,5.115-1.346c0.502,0,1.07,0.054,1.705,0.161
		c0.634,0.108,1.095,0.222,1.382,0.341L1244.581,558.854z"/>
	<path fill="#581D70" d="M1247.166,569.946c0-2.824,0.413-5.438,1.238-7.844c0.826-2.405,2.011-4.493,3.554-6.264
		c1.544-1.771,3.429-3.159,5.654-4.164c2.226-1.005,4.75-1.507,7.574-1.507c2.848,0,5.396,0.502,7.646,1.507
		c2.25,1.005,4.146,2.394,5.69,4.164c1.543,1.771,2.722,3.859,3.535,6.264c0.813,2.405,1.221,5.02,1.221,7.844v0.754
		c0,2.824-0.407,5.444-1.221,7.861c-0.813,2.417-1.992,4.505-3.535,6.264c-1.544,1.759-3.435,3.135-5.672,4.128
		c-2.238,0.993-4.769,1.49-7.593,1.49c-2.848,0-5.391-0.497-7.628-1.49c-2.238-0.993-4.128-2.369-5.672-4.128
		c-1.543-1.759-2.728-3.847-3.554-6.264c-0.825-2.417-1.238-5.038-1.238-7.861V569.946z M1255.889,570.7
		c0,1.747,0.18,3.398,0.539,4.954c0.358,1.556,0.921,2.914,1.687,4.074c0.766,1.161,1.741,2.077,2.926,2.746
		c1.185,0.67,2.591,1.005,4.218,1.005c1.604,0,2.998-0.335,4.183-1.005c1.185-0.669,2.153-1.585,2.907-2.746
		c0.754-1.16,1.316-2.518,1.688-4.074c0.371-1.555,0.557-3.207,0.557-4.954v-0.754c0-1.723-0.186-3.356-0.557-4.9
		c-0.371-1.544-0.939-2.896-1.705-4.057c-0.767-1.161-1.741-2.087-2.926-2.782c-1.185-0.694-2.591-1.041-4.218-1.041
		c-1.628,0-3.021,0.347-4.183,1.041c-1.16,0.694-2.124,1.621-2.89,2.782c-0.766,1.161-1.328,2.513-1.687,4.057
		c-0.359,1.543-0.539,3.177-0.539,4.9V570.7z"/>
	<path fill="#581D70" d="M1307.761,590.443c-2.872,0-5.456-0.479-7.754-1.436c-2.297-0.957-4.248-2.273-5.852-3.949
		c-1.604-1.675-2.835-3.662-3.697-5.959c-0.861-2.297-1.292-4.774-1.292-7.431v-1.436c0-3.063,0.454-5.833,1.364-8.31
		c0.909-2.477,2.153-4.583,3.733-6.318c1.579-1.735,3.439-3.075,5.582-4.021c2.142-0.945,4.444-1.418,6.91-1.418
		c2.823,0,5.276,0.473,7.358,1.418s3.806,2.268,5.17,3.966c1.363,1.7,2.381,3.722,3.051,6.067c0.67,2.346,1.005,4.918,1.005,7.718
		v3.733h-25.379c0.119,1.508,0.437,2.896,0.951,4.164c0.515,1.269,1.214,2.364,2.1,3.285c0.886,0.921,1.933,1.646,3.142,2.172
		c1.208,0.526,2.578,0.79,4.11,0.79c2.153,0,4.025-0.431,5.617-1.292c1.592-0.861,2.974-2.046,4.146-3.554l4.702,4.487
		c-0.622,0.933-1.394,1.837-2.314,2.71c-0.922,0.874-1.999,1.651-3.231,2.333s-2.626,1.233-4.182,1.651
		S1309.699,590.443,1307.761,590.443z M1306.72,557.167c-2.394,0-4.325,0.838-5.798,2.513c-1.472,1.675-2.411,4.009-2.817,7h16.62
		v-0.646c-0.071-1.148-0.257-2.255-0.557-3.32c-0.299-1.064-0.76-2.01-1.382-2.836s-1.43-1.483-2.423-1.974
		C1309.37,557.413,1308.155,557.167,1306.72,557.167z"/>
	<path fill="#581D70" d="M1364.119,570.7c0,2.824-0.329,5.444-0.986,7.861c-0.659,2.417-1.628,4.505-2.908,6.264
		c-1.28,1.759-2.86,3.135-4.738,4.128c-1.879,0.993-4.026,1.49-6.443,1.49c-2.226,0-4.177-0.359-5.852-1.077
		c-1.676-0.718-3.136-1.759-4.38-3.123v18.415h-8.723v-53.774h8.041l0.359,3.949c1.244-1.508,2.722-2.662,4.433-3.464
		c1.711-0.801,3.716-1.202,6.013-1.202c2.465,0,4.643,0.479,6.534,1.436c1.89,0.958,3.476,2.304,4.756,4.039
		c1.28,1.735,2.249,3.817,2.908,6.246c0.657,2.429,0.986,5.115,0.986,8.059V570.7z M1355.433,569.946
		c0-1.747-0.174-3.386-0.521-4.918c-0.348-1.531-0.88-2.872-1.598-4.021c-0.718-1.149-1.64-2.052-2.764-2.71
		c-1.126-0.658-2.478-0.987-4.057-0.987c-1.915,0-3.494,0.395-4.738,1.185c-1.245,0.79-2.226,1.867-2.944,3.23v17.231
		c0.719,1.364,1.693,2.459,2.926,3.285c1.232,0.825,2.842,1.238,4.828,1.238c1.58,0,2.926-0.341,4.039-1.023
		c1.112-0.682,2.028-1.603,2.746-2.764c0.718-1.161,1.244-2.519,1.579-4.074s0.503-3.195,0.503-4.918V569.946z"/>
	<path fill="#581D70" d="M1388.602,590.443c-2.872,0-5.456-0.479-7.754-1.436c-2.297-0.957-4.248-2.273-5.852-3.949
		c-1.604-1.675-2.835-3.662-3.697-5.959c-0.861-2.297-1.292-4.774-1.292-7.431v-1.436c0-3.063,0.454-5.833,1.364-8.31
		c0.909-2.477,2.153-4.583,3.733-6.318c1.579-1.735,3.439-3.075,5.582-4.021c2.142-0.945,4.444-1.418,6.91-1.418
		c2.823,0,5.276,0.473,7.358,1.418s3.806,2.268,5.17,3.966c1.363,1.7,2.381,3.722,3.051,6.067c0.67,2.346,1.005,4.918,1.005,7.718
		v3.733h-25.379c0.119,1.508,0.437,2.896,0.951,4.164c0.515,1.269,1.214,2.364,2.1,3.285c0.886,0.921,1.933,1.646,3.142,2.172
		c1.208,0.526,2.578,0.79,4.11,0.79c2.153,0,4.025-0.431,5.617-1.292c1.592-0.861,2.974-2.046,4.146-3.554l4.702,4.487
		c-0.622,0.933-1.394,1.837-2.314,2.71c-0.922,0.874-1.999,1.651-3.231,2.333s-2.626,1.233-4.182,1.651
		S1390.54,590.443,1388.602,590.443z M1387.561,557.167c-2.394,0-4.325,0.838-5.798,2.513c-1.472,1.675-2.411,4.009-2.817,7h16.62
		v-0.646c-0.071-1.148-0.257-2.255-0.557-3.32c-0.299-1.064-0.76-2.01-1.382-2.836s-1.43-1.483-2.423-1.974
		C1390.211,557.413,1388.996,557.167,1387.561,557.167z"/>
	<path fill="#581D70" d="M1419.042,550.885l0.251,4.487c1.364-1.651,3.003-2.932,4.918-3.841c1.914-0.909,4.044-1.364,6.39-1.364
		c1.866,0,3.56,0.257,5.079,0.771c1.52,0.515,2.818,1.346,3.896,2.495c1.076,1.148,1.908,2.645,2.494,4.487
		c0.587,1.843,0.88,4.081,0.88,6.713v25.092h-8.723v-25.164c0-1.34-0.15-2.471-0.449-3.392c-0.3-0.921-0.735-1.669-1.311-2.244
		c-0.574-0.574-1.286-0.987-2.136-1.238c-0.85-0.251-1.825-0.377-2.926-0.377c-1.795,0-3.356,0.431-4.685,1.292
		c-1.328,0.862-2.387,2.023-3.177,3.482v27.641h-8.723v-38.841H1419.042z"/>
</g>
</svg>
